<svg height="0" style="position: absolute; width: 0; height: 0;" version="1.1" width="0" xmlns:xlink="http://www.w3.org/1999/xlink" xmlns="http://www.w3.org/2000/svg">
    <defs>
        <symbol id="icon-iocaine" viewBox="0 0 12 32">
            <title>iocaine</title>
            <path d="M12,16 L12,29.53 C12.0223121,30.8682916 10.958198,31.9726453 9.62,32 L2.38,32 C1.04180202,31.9726453 -0.0223121078,30.8682916 -1.58987678e-13,29.53 L-1.58987678e-13,16 C-1.58987678e-13,13.97 0.95,12.1 2.55,10.97 L3.3,1.44 C3.31557982,1.19049518 3.52005383,0.994722189 3.77,0.99 L8.22,0.99 C8.47,0.99 8.68,1.19 8.7,1.44 L9.45,10.97 C11.05,12.11 12,13.97 12,16 Z M4.14,2.98 L7.86,2.98 L7.79,1.98 L4.21,1.98 L4.14,2.98 Z M0.98,15.51 L1.94,15.51 C2.08,14.28 2.74,13.19 3.77,12.51 L4.57,11.99 C4.64661951,11.9377312 4.73725003,11.9098449 4.83,11.91 L7.17,11.91 C7.26,11.91 7.35,11.94 7.42,11.99 L8.23,12.51 C9.25726564,13.1866667 9.92844016,14.2869528 10.06,15.51 L11.02,15.51 C10.8861868,13.9516818 10.0460877,12.5404629 8.74,11.68 C8.61199628,11.5940318 8.53081704,11.4538131 8.52,11.3 L7.94,3.97 L4.06,3.97 L3.48,11.3 C3.46918296,11.4538131 3.38800372,11.5940318 3.26,11.68 C1.9550104,12.5415115 1.11525858,13.9521473 0.98,15.51 Z M7.72,13.35 L7.03,12.9 L4.97,12.9 L4.27,13.35 C3.5265564,13.8420342 3.02821006,14.6277482 2.9,15.51 L9.1,15.51 C8.96941324,14.6260232 8.46723591,13.8400065 7.72,13.35 Z M11.05,29.53 L11.05,26.53 L10.09,26.53 L10.09,29.53 C10.09,29.8 9.89,30.03 9.62,30.03 L2.38,30.03 C2.25436804,30.0261371 2.1355177,29.9721142 2.05,29.88 C1.95945743,29.7860667 1.90921626,29.6604638 1.91,29.53 L1.91,28 C1.91,27.73 2.12,27.5 2.38,27.5 C2.65,27.5 2.86,27.73 2.86,28 L2.86,29.02 L9.14,29.02 L9.14,26.52 L0.95,26.52 L0.95,29.52 C0.95,30.33 1.6,31 2.38,31 L9.62,31 C10.4,31 11.05,30.33 11.05,29.52 L11.05,29.53 Z M11.05,25.53 L11.05,16.5 L0.95,16.5 L0.95,25.54 L11.05,25.54 L11.05,25.53 Z M9.5,22.28 C9.40768899,22.365946 9.2847079,22.4111835 9.15870709,22.4055417 C9.03270627,22.3998999 8.91426035,22.3438522 8.83,22.25 L7.59,20.85 L6.35,22.25 C6.2615158,22.3508416 6.13415515,22.4090636 6,22.41 C5.86584485,22.4090636 5.7384842,22.3508416 5.65,22.25 L4.41,20.85 L3.17,22.25 C3.08728055,22.3463933 2.96838457,22.404292 2.84149136,22.4099738 C2.71459816,22.4156556 2.59100338,22.3686146 2.5,22.28 C2.30085538,22.0938563 2.28751152,21.7824994 2.47,21.58 L4.06,19.78 C4.15,19.68 4.28,19.62 4.41,19.62 C4.54,19.62 4.67,19.68 4.76,19.78 L6,21.18 L7.24,19.78 C7.33,19.68 7.46,19.62 7.59,19.62 C7.72,19.62 7.85,19.68 7.94,19.78 L9.53,21.58 C9.71248848,21.7824994 9.69914462,22.0938563 9.5,22.28 Z" id="clwca"></path>
        </symbol>
        <symbol id="icon-lock" viewBox="0 0 1024 1024">
            <title>lock</title>
            <path
                class="path1"
                d="M427.571 0c-149.486 0-270.822 121.6-270.822 271.411v119.639h-156.749v632.95h1024v-632.96h-156.749v-119.642c0-149.811-121.349-271.411-270.822-271.411h-168.832zM427.571 64.136h168.832c115.141 0 206.838 91.889 206.838 207.276v119.639h-582.502v-119.639c0-115.384 91.692-207.276 206.83-207.276zM64 455.201h896v504.678h-896v-504.678zM480 586.721v229.325h64v-229.325h-64z"></path>
        </symbol>
        <symbol id="icon-promote" viewBox="0 0 1024 1024">
            <title>promote</title>
            <path
                class="path1"
                d="M0 0v1024h1024v-1024h-1024zM64 64h416v896h-416v-896zM544 64h416v252.16h-416v-252.16zM272.589 113.485l-186.163 186.163 44.524 44.524 109.64-109.645v681.83h64v-681.83l109.645 109.645 44.518-44.518-186.163-186.168zM544 380.16h416v273.92h-416v-273.92zM544 718.080h416v241.92h-416v-241.92z"></path>
        </symbol>
        <symbol id="icon-trash" viewBox="0 0 1024 1024">
            <title>trash</title>
            <path
                class="path1"
                d="M273.382 0v143.726h-273.382v64h119.77v816.282h780.8v-816.282h123.43v-64h-277.018v-143.726zM337.382 64h345.6v79.726h-345.6zM183.782 207.726h89.6v682.982h64v-682.982h140.8v682.982h64v-682.982h140.8v682.982h64v-682.982h89.6v752.282h-652.8z"></path>
        </symbol>
        <symbol id="icon-unlock" viewBox="0 0 1024 1024">
            <title>unlock</title>
            <path
                class="path1"
                d="M427.571 0c-146.12 0-265.318 116.191-270.618 261.325h64.036c5.158-110.612 94.822-197.197 206.592-197.197h168.832c115.139 0 206.835 91.886 206.835 207.273v119.639h-803.249v632.947h1024v-632.96h-156.749v-119.642c0-149.806-121.352-271.411-270.822-271.411zM64 455.194h896v504.678h-896zM480 586.701v229.325h64v-229.325z"></path>
        </symbol>
        <symbol id="icon-client-requirement" viewBox="0 0 1024 1024">
            <title>client-requirement</title>
            <path
                class="path1"
                d="M273.375 0v139.336h-274.289v611.84h452.388v-64h-388.388v-483.84h61.425v243.2h606.72v-243.2h61.455v247.224h64v-306.47h-0.036v-4.754h-263.278v-139.336h-320zM337.375 64h192v75.336h-192v-75.336zM188.511 203.336h478.72v179.2h-478.72v-179.2zM395.871 254.228v73.139h64v-73.134h-64zM512.914 512v512h512v-512h-512zM576.914 576h384v70.060l-37.179-31.345-189.765 225.075-127.219-107.256-29.837 35.387v-191.921zM960.914 669.901v290.099h-384v-168.909l164.731 138.885 219.269-260.076z"></path>
        </symbol>
        <symbol id="icon-project" viewBox="0 0 29 27">
            <title>project</title>
            <path d="M29,3.57 L29,27 L0,27 L0,0 L10.4,0 L12.82,3.57 L29,3.57 Z M8.7,13.25 C8.7,13.53 8.92,13.75 9.18,13.75 L15.95,13.75 C16.218302,13.7392594 16.4302149,13.5185168 16.43,13.25 C16.4356645,12.9776195 16.2222237,12.7508387 15.95,12.74 L9.18,12.74 C8.91169804,12.7507406 8.6997851,12.9714832 8.7,13.24 L8.7,13.25 Z M20.3,19.35 C20.3002149,19.0814832 20.088302,18.8607406 19.82,18.85 L9.18,18.85 C8.91169804,18.8607406 8.6997851,19.0814832 8.7,19.35 C8.7,19.64 8.92,19.87 9.18,19.87 L19.82,19.87 C20.0922237,19.8591613 20.3056645,19.6323805 20.3,19.36 L20.3,19.35 Z M20.3,16.3 C20.3002149,16.0314832 20.088302,15.8107406 19.82,15.8 L9.18,15.8 C8.91169804,15.8107406 8.6997851,16.0314832 8.7,16.3 C8.7,16.58 8.92,16.81 9.18,16.81 L19.82,16.81 C20.088302,16.7992594 20.3002149,16.5785168 20.3,16.31 L20.3,16.3 Z M28.03,4.58 L13.51,4.58 L15.23,7.13 L28.03,7.13 L28.03,4.58 Z" id="y4npa"></path>
        </symbol>
        <symbol id="icon-team-requirement" viewBox="0 0 1024 1024">
            <title>team-requirement</title>
            <path
                class="path1"
                d="M404.421 0c-139.443 0-253.171 113.725-253.171 253.169s113.725 253.176 253.171 253.176c139.443 0 253.174-113.728 253.174-253.171s-113.731-253.174-253.174-253.174zM404.421 64c104.858 0 189.174 84.314 189.174 189.169 0 104.858-84.319 189.176-189.174 189.176-104.858 0-189.171-84.316-189.171-189.171 0-104.858 84.314-189.171 189.171-189.171zM512.914 512v512h512v-512h-512zM404.396 546.9c-224.645 0.056-404.216 201.055-405.181 444.972l-0.128 32.128h452.388v-64h-386.68c15.329-197.402 162.803-349.041 339.602-349.1h0.026c15.949 0 31.657 1.254 47.053 3.651v-64.632c-15.437-1.971-31.13-3.021-47.068-3.021zM576.914 576h384v70.060l-37.179-31.345-189.765 225.075-127.219-107.256-29.837 35.387v-191.921zM960.914 669.901v290.099h-384v-168.909l164.731 138.885 219.269-260.076z"></path>
        </symbol>
        <symbol id="icon-add" viewBox="0 0 1024 1024">
            <title>add</title>
            <path class="path1" d="M480 0v480h-480v64h480v480h64v-480h480v-64h-480v-480h-64z"></path>
        </symbol>
        <symbol id="icon-scrum" viewBox="0 0 35 35">
            <title>scrum</title>
            <path d="M34.67,0.8 L34.67,33.62 C34.67,33.94 34.41,34.2 34.1,34.2 L1.23,34.2 C1.07881906,34.197371 0.93487725,34.1347813 0.829851923,34.026005 C0.724826596,33.9172288 0.667324444,33.7711801 0.67,33.62 L0.67,0.8 C0.67,0.49 0.92,0.23 1.23,0.23 L34.1,0.23 C34.41,0.23 34.67,0.49 34.67,0.8 Z M1.8,12.3 L1.8,33.04 L22.2,33.04 L22.2,12.3 L1.8,12.3 Z M22.2,11.15 L22.2,1.36 L1.8,1.36 L1.8,11.15 L22.2,11.15 Z M33.53,23.25 L23.33,23.25 L23.33,33.04 L33.53,33.04 L33.53,23.25 Z M33.53,12.3 L23.33,12.3 L23.33,22.1 L33.53,22.1 L33.53,12.3 Z M33.53,1.36 L23.33,1.36 L23.33,11.15 L33.53,11.15 L33.53,1.36 Z" id="45jsa"></path>
        </symbol>
        <symbol id="icon-bulk" viewBox="0 0 1024 1024">
            <title>bulk</title>
            <path
                class="path1"
                d="M0 0v64h214.976v-64h-214.976zM330.176 0v64h693.824v-64h-693.824zM0 335.36v64h214.976v-64h-214.976zM330.176 335.36v64h693.824v-64h-693.824zM0 652.8v64h214.976v-64h-214.976zM330.176 652.8v64h693.824v-64h-693.824zM0 960v64h214.976v-64h-214.976zM330.176 960v64h693.824v-64h-693.824z"></path>
        </symbol>
        <symbol id="icon-close" viewBox="0 0 1024 1024">
            <title>close</title>
            <path class="path1" d="M44.518 0l-44.518 44.526 467.482 467.474-467.482 467.482 44.518 44.518 467.482-467.482 467.482 467.482 44.518-44.518-467.482-467.482 467.482-467.474-44.518-44.526-467.482 467.482-467.482-467.482z"></path>
        </symbol>
        <symbol id="icon-dashboard" viewBox="0 0 33 33">
            <title>dashboard</title>
            <path d="M12.37,12.37 L20.62,12.37 L20.62,20.62 L12.37,20.62 L12.37,12.37 Z M0,0 L8.25,0 L8.25,8.25 L0,8.25 L0,0 Z M12.37,24.75 L20.62,24.75 L20.62,33 L12.37,33 L12.37,24.75 Z M0,12.37 L8.25,12.37 L8.25,20.62 L0,20.62 L0,12.37 Z M0,24.75 L8.25,24.75 L8.25,33 L0,33 L0,24.75 Z M24.75,0 L33,0 L33,8.25 L24.75,8.25 L24.75,0 Z M12.37,0 L20.62,0 L20.62,8.25 L12.37,8.25 L12.37,0 Z M24.75,12.37 L33,12.37 L33,20.62 L24.75,20.62 L24.75,12.37 Z M24.75,24.75 L33,24.75 L33,33 L24.75,33 L24.75,24.75 Z" id="ofvia"></path>
        </symbol>
        <symbol id="icon-discover" viewBox="0 0 29 29">
            <title>discover</title>
            <path d="M24.54,24.97 C22.2413868,27.2501052 19.2156681,28.6514907 15.99,28.93 C11.69,29.34 7.89,28.09 4.69,25.18 C2.07164726,22.8168851 0.430985799,19.5605287 0.09,16.05 C-0.698896608,8.41646219 4.59667116,1.49014012 12.17,0.25 C12.9,0.13 13.64,0.08 14.38,7.10542736e-15 L14.54,7.10542736e-15 C15.33,0.08 16.12,0.12 16.9,0.25 C20.81,0.93 23.94,2.88 26.28,6.07 C27.7272684,8.0115204 28.6315691,10.3033359 28.9,12.71 C29.42,17.49 28,21.61 24.54,24.97 Z M27.03,15.84 C26.84,15.77 26.65,15.7 26.47,15.61 C25.6872652,15.2694814 25.1752812,14.5034596 25.16,13.65 C25.13,12.97 25.02,12.83 24.33,12.68 C23.6,12.53 23.37,12.2 23.57,11.48 C23.71,11.01 23.93,10.56 24.14,10.11 C24.34,9.64 24.49,9.17 24.38,8.63 C24.28,8.15 24.3,7.66 24.74,7.25 C24.33,6.78 23.94,6.33 23.54,5.9 C23.34,5.7 23.19,5.77 23.13,6.05 C23.11,6.12 23.12,6.2 23.1,6.27 C22.95,6.9 22.56,7.04 22.05,6.66 C21.96,6.59 21.89,6.5 21.79,6.46 C21.63,6.41 21.45,6.34 21.29,6.36 C20.74,6.46 20.65,6.39 20.7,5.85 C20.74,5.47 20.6,5.32 20.22,5.34 C20.09,5.34 19.96,5.37 19.82,5.37 C19.42,5.38 19.16,5.07 19.26,4.67 C19.31,4.47 19.43,4.27 19.48,4.07 C19.51,3.92 19.56,3.68 19.48,3.6 C19.17,3.3 18.83,3 18.46,2.76 C17.79,2.34 17.11,2.66 16.44,2.81 C16.37,3.35 16.3,3.42 15.78,3.27 C15.1478986,3.1268285 14.577323,2.78728351 14.15,2.3 C14.0833713,2.22738481 13.988513,2.18725245 13.89,2.19 C13.25,2.26 12.62,2.35 11.99,2.44 C11.89,2.46 11.75,2.58 11.75,2.65 C11.75,2.77 11.83,2.98 11.91,3 C12.11,3.03 12.35,3.03 12.55,2.96 C12.81,2.86 13.03,2.66 13.29,2.53 C13.59,2.38 13.82,2.49 13.9,2.83 C14.0133392,3.18366068 13.8683878,3.56881721 13.55,3.76 C13.11,4.04 12.63,4.25 12.17,4.5 C11.86,4.68 11.53,4.86 11.25,5.08 C11.02,5.27 10.86,5.55 11.04,5.84 C11.21,6.11 11.51,6.04 11.75,5.96 C12.01,5.87 12.25,5.74 12.48,5.61 C12.63,5.53 12.75,5.4 12.88,5.31 C13.17,5.14 13.32,5.21 13.43,5.51 C13.61,6.02 13.95,6.14 14.41,5.84 C14.61,5.71 14.79,5.55 15,5.44 C15.3,5.27 15.63,5.44 15.66,5.77 C15.71,6.24 15.82,6.33 16.28,6.27 C16.56,6.25 16.84,6.21 17.11,6.17 L17.18,6.25 C17.08,6.43 17.03,6.66 16.88,6.78 C16.66,6.96 16.38,7.09 16.11,7.21 C15.72,7.37 15.37,7.47 15.36,7.5 C15.36,7.5 15.91,7.72 15.62,7.8 C15.14,7.94 14.42,8.71 15.45,8.39 L16.09,8.22 C15.87,8.87 15.41,9.13 14.95,9.38 C13.58,10.11 13.53,11.86 14.23,12.76 C14.39,12.96 14.51,13.18 14.62,13.4 C14.74,13.66 14.74,13.97 14.49,14.1 C14.32,14.2 13.99,14.18 13.84,14.06 C13.4782037,13.7775645 13.1524355,13.4517963 12.87,13.09 C12.51,12.64 12.25,12.1 11.87,11.67 C10.63,10.28 9.24,10.59 8.05,11.64 C7.75,11.9 7.79,12.14 8.12,12.36 C8.24,12.44 8.37,12.5 8.5,12.56 L10.1,13.18 C10.2,13.23 10.31,13.28 10.4,13.35 C10.58,13.5 10.6,13.65 10.36,13.75 C10.18,13.82 9.99,13.86 9.81,13.9 C9.46,13.98 9.09,14 8.77,14.13 C8.58,14.2 8.37,14.43 8.34,14.63 C8.32,14.78 8.53,15 8.68,15.14 C8.79,15.24 8.98,15.27 9.12,15.36 C9.32,15.48 9.53,15.59 9.68,15.76 C9.94,16.03 10.12,16.1 10.46,15.92 C10.78,15.74 11.09,15.54 11.4,15.34 C11.76,15.11 11.83,15.14 12.05,15.51 C12.31,15.98 12.67,16.36 13.26,16.26 C13.68,16.18 14.08,15.99 14.49,15.86 C14.77,15.76 15.05,15.62 15.33,15.59 C15.93,15.52 16.37,16.01 16.4,16.69 C16.44,17.39 16.12,17.89 15.63,18.35 C15.16,18.78 14.9,19.28 15.12,19.96 C15.35,20.68 15.1,21.3 14.55,21.79 C14.17,22.12 13.75,22.41 13.32,22.69 C12.82,23.03 11.99,24.85 12.18,25.49 C12.21,25.61 12.22,25.63 12.21,25.76 C12.16,26.44 11.81,26.32 11.2,26.43 C10.85,26.49 10.89,25.76 10.8,25.43 C10.7298503,25.0975898 10.7230649,24.7549267 10.78,24.42 C10.83,24.09 10.98,23.79 11.1,23.47 C11.33,22.82 11.16,22.26 10.68,21.78 L10.02,21.18 C9.2625569,20.4763213 8.82545842,19.4937528 8.81,18.46 C8.78,17.93 9.05,17.69 9.58,17.64 L9.91,17.6 C9.85,17.16 9.68,16.99 9.25,16.96 C8.84,16.93 8.6,16.7 8.44,16.36 C8.36,16.2 8.35,16.02 8.29,15.86 C8.14,15.46 8.03,15.03 7.8,14.69 C7.6,14.39 7.42,14.12 7.43,13.74 C7.43,13.55 7.3,13.34 7.18,13.19 C6.88,12.85 6.58,12.54 6.26,12.22 C6.13,12.1 5.98,12 5.78,11.83 C5.77,12.14 5.77,12.35 5.75,12.54 C5.72,12.83 5.71,13.12 5.62,13.38 C5.57,13.53 5.36,13.72 5.24,13.71 C5.08,13.7 4.85,13.51 4.81,13.37 C4.74,13.09 4.71,12.77 4.77,12.5 C5.05,11.19 5.17,9.87 5.01,8.54 L4.81,7.02 C1.80239797,10.823236 1.30529609,16.0369345 3.54,20.34 C5.17664411,23.5302678 8.10831667,25.8608451 11.5854883,26.7358823 C15.06266,27.6109194 18.7482581,26.9455914 21.7,24.91 C21.08,24.74 20.13,24.36 20.04,21.95 C19.92,18.59 20.46,17.87 20.76,17.87 C21.06,17.87 21.24,17.63 22.21,18.71 C23.17,19.79 23.65,19.25 23.71,18.53 C23.77,17.81 24.5,16.74 24.8,17.85 C25,18.61 25.47,19.5 25.84,20.14 C26.54,18.74 26.94,17.26 27.03,15.84 Z" id="79gga"></path>
        </symbol>
        <symbol id="icon-drag" viewBox="0 0 1024 1024">
            <title>drag</title>
            <path class="path1" d="M363.52 0v296.96h296.96v-296.96zM363.52 360.96v296.96h296.96v-296.96zM363.52 721.92v302.080h296.96v-302.080z"></path>
        </symbol>
        <symbol id="icon-exclamation" viewBox="0 0 1024 1024">
            <title>exclamation</title>
            <path
                class="path1"
                d="M512 0c-282.394 0-512 229.606-512 512s229.606 512 512 512 512-229.606 512-512-229.606-512-512-512zM512 64c247.803 0 448 200.197 448 448s-200.197 448-448 448-448-200.197-448-448 200.197-448 448-448zM480 162.918v473.052h64v-473.052h-64zM480 714.514v146.57h64v-146.568h-64z"></path>
        </symbol>
        <symbol id="icon-flag" viewBox="0 0 1024 1024">
            <title>flag</title>
            <path
                class="path1"
                d="M185.615 0c-170.665 0-185.615 0.051-185.615 0.051v1023.949h64v-460.792c17.72-0.026 9.795-0.036 121.615-0.036 180.419 0 286.277 44.846 431.345 69.164 145.065 24.32 407.040-53.76 407.040-53.76v-563.164s-261.975 78.072-407.040 53.752c-145.068-24.317-269.21-69.164-431.345-69.164zM186.826 66.074c116.511-0.571 230.328 30.408 343.926 54.118 140.526 36.232 288.077 15.647 426.68-18.988v426.002c-37.847 9.618-75.738 18.534-114.094 25.746-98.862 23.808-202.734 21.059-301.376-2.432-153.549-47.206-315.546-58.156-475.374-54.469 0.143-143.206-0.486-286.418 0.246-429.624 39.997 0.115 79.992-0.261 119.987-0.358z"></path>
        </symbol>
        <symbol id="icon-fold-column" viewBox="0 0 1024 1024">
            <title>fold-column</title>
            <path class="path1" d="M405.888 512l-362.040-362.040-45.256 45.256 316.785 316.785-316.785 316.785 45.256 45.256zM1025.408 195.215l-45.256-45.256-362.040 362.040 362.040 362.040 45.256-45.256-316.785-316.785z"></path>
        </symbol>
        <symbol id="icon-fold-row" viewBox="0 0 1024 1024">
            <title>fold-row</title>
            <path class="path1" d="M512 618.112l-362.040 362.040 45.256 45.256 316.785-316.785 316.785 316.785 45.256-45.256zM195.215-1.408l-45.256 45.256 362.040 362.040 362.040-362.040-45.256-45.256-316.785 316.785z"></path>
        </symbol>
        <symbol id="icon-graph" viewBox="0 0 1024 1024">
            <title>graph</title>
            <path class="path1" d="M960 0v1024h64v-1024h-64zM652.8 292.57v731.43h64v-731.43h-64zM335.36 577.83v446.17h64v-446.17h-64zM0 789.944v234.056h64v-234.056h-64z"></path>
        </symbol>
        <symbol id="icon-issues" viewBox="0 0 32 41">
            <title>issues</title>
            <path d="M31.33,10.56 L31.33,40.82 L0,40.82 L0,0.84 L21.6,0.84 L31.33,10.56 Z M22,10.16 L29.06,10.16 L22,3.12 L22,10.16 Z M30,39.48 L30,11.5 L20.67,11.5 L20.67,2.17 L1.33,2.17 L1.33,39.48 L30,39.48 Z M24.67,15.5 C24.67,15.87 24.37,16.16 24,16.16 L13.33,16.16 C13.0729472,16.191581 12.8207131,16.0721859 12.6821909,15.8533592 C12.5436688,15.6345325 12.5436688,15.3554675 12.6821909,15.1366408 C12.8207131,14.9178141 13.0729472,14.798419 13.33,14.83 L24,14.83 C24.37,14.83 24.67,15.13 24.67,15.5 Z M11.85,13.08 C12.08,13.37 12.04,13.78 11.75,14.02 L8.42,16.68 C8.15355922,16.9026879 7.76013418,16.880831 7.52,16.63 L6.2,15.3 C5.99480098,15.1409738 5.89993781,14.87772 5.95653277,14.6243567 C6.01312774,14.3709933 6.21099333,14.1731277 6.46435666,14.1165328 C6.71772,14.0599378 6.9809738,14.154801 7.14,14.36 L8.04,15.27 L10.92,12.97 C11.2,12.75 11.62,12.79 11.85,13.08 Z M24.67,22.83 C24.67,23.2 24.37,23.49 24,23.49 L13.33,23.49 C13.0729472,23.521581 12.8207131,23.4021859 12.6821909,23.1833592 C12.5436688,22.9645325 12.5436688,22.6854675 12.6821909,22.4666408 C12.8207131,22.2478141 13.0729472,22.128419 13.33,22.16 L24,22.16 C24.37,22.16 24.67,22.46 24.67,22.83 Z M11.85,20.41 C12.08,20.7 12.04,21.11 11.75,21.35 L8.42,24 C8.15355922,24.2226879 7.76013418,24.200831 7.52,23.95 L6.2,22.62 C5.99480098,22.4609738 5.89993781,22.19772 5.95653277,21.9443567 C6.01312774,21.6909933 6.21099333,21.4931277 6.46435666,21.4365328 C6.71772,21.3799378 6.9809738,21.474801 7.14,21.68 L8.04,22.59 L10.92,20.29 C11.2,20.07 11.62,20.11 11.85,20.4 L11.85,20.41 Z M24.67,30.16 C24.67,30.52 24.37,30.82 24,30.82 L13.33,30.82 C13.0729472,30.851581 12.8207131,30.7321859 12.6821909,30.5133592 C12.5436688,30.2945325 12.5436688,30.0154675 12.6821909,29.7966408 C12.8207131,29.5778141 13.0729472,29.458419 13.33,29.49 L24,29.49 C24.37,29.49 24.67,29.79 24.67,30.16 Z M11.85,27.74 C12.08,28.03 12.04,28.44 11.75,28.68 L8.42,31.34 C8.15355922,31.5626879 7.76013418,31.540831 7.52,31.29 L6.2,29.96 C5.99480098,29.8009738 5.89993781,29.53772 5.95653277,29.2843567 C6.01312774,29.0309933 6.21099333,28.8331277 6.46435666,28.7765328 C6.71772,28.7199378 6.9809738,28.814801 7.14,29.02 L8.04,29.92 L10.92,27.64 C11.2,27.41 11.62,27.45 11.85,27.74 Z" id="p8sia"></path>
        </symbol>
        <symbol id="icon-kanban" viewBox="0 0 24 24">
            <title>kanban</title>
            <path d="M24,0.5 L24,23.5 C24,23.7761424 23.7761424,24 23.5,24 L0.5,24 C0.223857625,24 0,23.7761424 0,23.5 L0,0.5 C0,0.22 0.22,0 0.5,0 L23.5,0 C23.78,0 24,0.22 24,0.5 Z M3,1 L1,1 L1,23 L3,23 L3,1 Z M6,1 L4,1 L4,23 L6,23 L6,1 Z M10.5,1 L7,1 L7,23 L10.5,23 L10.5,1 Z M15.97,1 L11.5,1 L11.5,23 L15.97,23 L15.97,1 Z M23,1 L16.97,1 L16.97,23 L23,23 L23,1 Z" id="69t5a"></path>
        </symbol>
        <symbol id="icon-like-empty" viewBox="0 0 1024 1024">
            <title>like-empty</title>
            <path
                class="path1"
                d="M775.526 0.051c-161.362-3.994-260.677 227.96-262.51 232.274-1.823-4.288-100.805-235.469-261.796-232.261-30.088 0.602-62.344 9.395-96.525 29.422-265.277 155.397-216.197 594.77 358.111 994.273v0.241l0.205-0.128 0.205 0.128v-0.241c566.574-373.642 623.393-838.876 358.118-994.273-33.917-19.866-65.933-28.698-95.808-29.435zM254.029 62.080c36.467 0.589 72.312 17.178 97.262 44.25 85.75 76.5 122.496 189.788 164.659 293.409 25.446-77.281 52.301-155.407 98.304-223.386 35.277-51.571 81.37-104.581 146.752-113.907 77.23-1.428 143.334 56.865 175.119 123.894 46.95 103.084 25.075 222.72-20.628 322.007-86.085 183.086-237.036 326.922-401.562 440.627-52.198-37.934-102.707-78.167-150.548-121.431-106.112-97.213-203.372-208.635-261.11-341.806-25.252-61.471-43.679-128.095-41.51-195.21 4.923-95.782 65.313-191.020 156.974-223.491 11.912-3.569 24.136-5.151 36.291-4.956z"></path>
        </symbol>
        <symbol id="icon-like" viewBox="0 0 1024 1024">
            <title>like</title>
            <path
                class="path1"
                d="M251.22 0.064c-30.088 0.602-62.344 9.4-96.52 29.422-265.28 155.402-216.202 594.775 358.106 994.278v0.236l0.205-0.123 0.205 0.123v-0.238c566.579-373.642 623.391-838.874 358.113-994.278-217.037-127.14-356.142 197.729-358.316 202.842-1.818-4.288-100.8-235.469-261.791-232.261z"></path>
        </symbol>
        <symbol id="icon-activity" viewBox="0 0 400 400">
            <title>activity</title>
            <path d="M280 80l46 46-98 97-80-80L.3 293l28 27 120-120 79.8 80 126-126 46 46V80z"/>
        </symbol>
        <symbol id="icon-question" viewBox="0 0 1024 1024">
            <title>question</title>
            <path
                class="path1"
                d="M512 0c-282.394 0-512 229.606-512 512s229.606 512 512 512 512-229.606 512-512-229.606-512-512-512zM512 64c247.803 0 448 200.197 448 448s-200.197 448-448 448-448-200.197-448-448 200.197-448 448-448zM510.175 166.92c-62.687 0-122.785 15.063-180.301 45.189l26.931 61.619c29.517-14.909 55.688-25.101 78.51-30.579 22.822-5.78 46.254-8.673 70.298-8.673 37.427 0 66.033 8.517 85.811 25.559 20.086 16.737 30.126 40.627 30.126 71.665 0 24.952-5.478 46.259-16.435 63.905-10.65 17.651-36.664 43.971-78.049 78.966-29.824 25.559-50.212 49.905-61.166 73.032-10.957 22.822-16.435 52.037-16.435 87.642v24.643h58.885v-15.060c0-28.91 4.864-52.040 14.605-69.386 10.040-17.344 30.428-39.099 61.164-65.27 38.341-33.472 63.296-57.664 74.86-72.576 11.564-15.214 20.234-31.191 26.015-47.928 6.088-17.042 9.132-36.667 9.132-58.88 0-52.037-16.128-92.365-48.384-120.965-32.256-28.605-77.445-42.906-135.567-42.906zM449.28 714.514v146.57h64v-146.568h-64z"></path>
        </symbol>
        <symbol id="icon-search" viewBox="0 0 31 32">
            <title>search</title>
            <path d="M30.48,31.15 C30.3647815,31.2603652 30.2103506,31.3202954 30.0508461,31.3165424 C29.8913416,31.3127893 29.7399002,31.2456621 29.63,31.13 L20.67,21.97 C18.3974363,23.8243122 15.5530864,24.8348514 12.62,24.83 C5.71364785,24.8744302 0.07145552,19.3261254 0,12.42 C0,5.57 5.66,0 12.62,0 C19.59,0 25.25,5.57 25.25,12.42 C25.25,15.83 23.84,18.93 21.56,21.18 L30.49,30.31 C30.72,30.55 30.72,30.92 30.48,31.15 Z M24.05,12.42 C24.05,6.22 18.92,1.18 12.62,1.18 C6.32,1.18 1.2,6.22 1.2,12.42 C1.2,18.61 6.33,23.65 12.62,23.65 C18.92,23.65 24.05,18.61 24.05,12.42 Z" id="yseqa"></path>
        </symbol>
        <symbol id="icon-smile" viewBox="0 0 31 32">
            <title>smile</title>
            <path d="M30.48,31.15 C30.3647815,31.2603652 30.2103506,31.3202954 30.0508461,31.3165424 C29.8913416,31.3127893 29.7399002,31.2456621 29.63,31.13 L20.67,21.97 C18.3974363,23.8243122 15.5530864,24.8348514 12.62,24.83 C5.71364785,24.8744302 0.07145552,19.3261254 0,12.42 C0,5.57 5.66,0 12.62,0 C19.59,0 25.25,5.57 25.25,12.42 C25.25,15.83 23.84,18.93 21.56,21.18 L30.49,30.31 C30.72,30.55 30.72,30.92 30.48,31.15 Z M24.05,12.42 C24.05,6.22 18.92,1.18 12.62,1.18 C6.32,1.18 1.2,6.22 1.2,12.42 C1.2,18.61 6.33,23.65 12.62,23.65 C18.92,23.65 24.05,18.61 24.05,12.42 Z" id="yseqa"></path>
        </symbol>
        <symbol id="icon-attach" viewBox="0 0 31 32">
            <title>attach</title>
            <path d="M30.48,31.15 C30.3647815,31.2603652 30.2103506,31.3202954 30.0508461,31.3165424 C29.8913416,31.3127893 29.7399002,31.2456621 29.63,31.13 L20.67,21.97 C18.3974363,23.8243122 15.5530864,24.8348514 12.62,24.83 C5.71364785,24.8744302 0.07145552,19.3261254 0,12.42 C0,5.57 5.66,0 12.62,0 C19.59,0 25.25,5.57 25.25,12.42 C25.25,15.83 23.84,18.93 21.56,21.18 L30.49,30.31 C30.72,30.55 30.72,30.92 30.48,31.15 Z M24.05,12.42 C24.05,6.22 18.92,1.18 12.62,1.18 C6.32,1.18 1.2,6.22 1.2,12.42 C1.2,18.61 6.33,23.65 12.62,23.65 C18.92,23.65 24.05,18.61 24.05,12.42 Z" id="yseqa"></path>
        </symbol>
        <symbol id="icon-settings" viewBox="0 0 36 36">
            <title>settings</title>
            <path d="M36,16.34 L36,20.34 C36,20.67 35.76,20.95 35.43,21 L33.25,21.34 C32.0160046,21.5171956 30.9615172,22.3202042 30.4625832,23.4626611 C29.9636492,24.6051181 30.0912949,25.9243879 30.8,26.95 L31.99,28.71 C32.17,28.97 32.13,29.33 31.91,29.55 L29.08,32.38 C28.8470576,32.6149325 28.4775079,32.6446664 28.21,32.45 L26.96,31.53 C25.9388645,30.7712512 24.5930891,30.6077813 23.42,31.1 C22.2440934,31.5799126 21.408076,32.6439347 21.22,33.9 L20.99,35.43 C20.9406786,35.7567673 20.6604662,35.9987689 20.33,36 L16.33,36 C16.0128248,35.9965559 15.7415264,35.7711696 15.68,35.46 L15.28,33.38 C15.0520472,32.1524613 14.2043463,31.1306789 13.04,30.68 C11.8816266,30.2228363 10.5692489,30.3968114 9.57,31.14 L7.79,32.44 C7.52488834,32.6372949 7.15551747,32.611821 6.92,32.38 L4.09,29.55 C3.86822131,29.3240679 3.83485619,28.9737342 4.01,28.71 L5.21,26.95 C5.91902688,25.922962 6.04554997,24.601974 5.54436279,23.4590227 C5.04317562,22.3160715 3.98578695,21.5142319 2.75,21.34 L0.57,21 C0.243232717,20.9506786 0.0012311111,20.6704662 1.45661261e-13,20.34 L1.45661261e-13,16.34 C1.45661261e-13,16.03 0.23,15.75 0.54,15.69 L2.63,15.29 C3.85581117,15.0647781 4.87792665,14.2215491 5.33201164,13.0608835 C5.78609662,11.9002179 5.60754431,10.5872539 4.86,9.59 L3.56,7.8 C3.36842927,7.53682084 3.39374038,7.17402821 3.62,6.94 L6.45,4.11 C6.67746276,3.8828945 7.03415773,3.84932321 7.3,4.03 L9.57,5.57 C10.5780644,6.26513412 11.8697797,6.40187421 13.0010433,5.93320789 C14.1323068,5.46454156 14.9488732,4.45437048 15.17,3.25 L15.67,0.56 C15.7322697,0.245156703 16.0090606,0.0186914045 16.33,0.02 L20.33,0.02 C20.66,0.02 20.94,0.26 20.99,0.59 L21.33,2.77 C21.5054468,4.00738058 22.3100873,5.06523681 23.4557153,5.56466536 C24.6013432,6.06409391 25.9240243,5.93362878 26.95,5.22 L28.7,4.03 C28.9658423,3.84932321 29.3225372,3.8828945 29.55,4.11 L32.38,6.94 C32.61,7.17 32.64,7.54 32.44,7.8 L31.14,9.59 C30.3922716,10.5886582 30.2148884,11.9032523 30.6711892,13.0643748 C31.12749,14.2254973 32.1524187,15.0676038 33.38,15.29 L35.46,15.69 C35.77,15.75 36,16.03 36,16.34 Z M34.67,16.9 L33.12,16.6 C31.4422807,16.2923053 30.0428072,15.1392401 29.4198693,13.551359 C28.7969313,11.9634779 29.0390433,10.166406 30.06,8.8 L31.03,7.48 L29,5.44 L27.7,6.33 C26.2946411,7.29813054 24.489126,7.47234685 22.9245863,6.79078537 C21.3600467,6.10922389 20.2580836,4.66842082 20.01,2.98 L19.76,1.35 L16.88,1.35 L16.47,3.5 C16.1640907,5.14284303 15.0483666,6.51966477 13.5045789,7.15937811 C11.9607912,7.79909146 10.198243,7.61496552 8.82,6.67 L7,5.44 L4.97,7.48 L5.94,8.8 C6.96095671,10.166406 7.20306868,11.9634779 6.58013072,13.551359 C5.95719276,15.1392401 4.55771929,16.2923053 2.88,16.6 L1.33,16.9 L1.33,19.77 L2.96,20.02 C4.64809528,20.2646256 6.0898029,21.3644786 6.77178162,22.9279403 C7.45376035,24.491402 7.27910341,26.2963099 6.31,27.7 L5.43,29 L7.46,31.03 L8.78,30.06 C10.1479075,29.0448422 11.9423232,28.8060605 13.5281012,29.4281734 C15.1138792,30.0502863 16.2672613,31.4455118 16.58,33.12 L16.88,34.67 L19.76,34.67 L19.91,33.69 C20.1679466,31.9773967 21.3073514,30.5265546 22.91,29.87 C24.5099324,29.2002302 26.3441225,29.4204849 27.74,30.45 L28.54,31.03 L30.57,29 L29.69,27.7 C28.7208966,26.2963099 28.5462397,24.491402 29.2282184,22.9279403 C29.9101971,21.3644786 31.3519047,20.2646256 33.04,20.02 L34.67,19.77 L34.67,16.9 Z M25.33,18.34 C25.3244772,22.2059932 22.1859932,25.3355228 18.32,25.33 C14.4540068,25.3244772 11.3244772,22.1859932 11.33,18.32 C11.3335727,15.8191409 12.6710664,13.5101577 14.8386603,12.2628222 C17.0062541,11.0154866 19.674639,11.0192986 21.8386603,12.2728222 C24.0026815,13.5263457 25.3335727,15.8391409 25.33,18.34 Z M24,18.34 C23.9964274,16.3143041 22.9124302,14.4443898 21.1563398,13.4346359 C19.4002493,12.4248819 17.2388575,12.4286939 15.4863397,13.4446359 C13.7338219,14.4605778 12.6564273,16.3343041 12.66,18.36 C12.6655229,21.4914545 15.2085455,24.0255227 18.34,24.0199999 C21.4714545,24.014477 24.0055228,21.4714545 24,18.34 Z M22,18.34 C22,20.366885 20.356885,22.01 18.33,22.01 C16.303115,22.01 14.66,20.366885 14.66,18.34 C14.66,16.313115 16.303115,14.67 18.33,14.67 C20.356885,14.67 22,16.313115 22,18.34 Z M20.67,18.34 C20.7251136,17.4692118 20.2911677,16.6400859 19.5442482,16.1890639 C18.7973287,15.7380419 17.8615109,15.7400458 17.1165298,16.1942624 C16.3715487,16.6484791 15.9411576,17.4794558 16,18.35 C16.0805602,19.5803589 17.1020065,20.5371112 18.335,20.5371112 C19.5679935,20.5371112 20.5894398,19.5803589 20.67,18.35 L20.67,18.34 Z" id="qvgqa"></path>
        </symbol>
        <symbol id="icon-team" viewBox="0 0 40 38">
            <title>team</title>
            <path d="M40,34.93 L40,37.4 L-9.99431701e-06,37.4 L-1.81034658e-15,34.57 C-0.0040071939,32.3691469 1.19725324,30.3427395 3.13,29.29 L9.08,26.05 C9.65,25.75 10,25.15 10,24.51 L10,22.31 C9.55,21.71 8.28,19.9 7.66,17.48 C7.04,16.98 6.66,16.22 6.66,15.41 L6.66,12.74 C6.66,12.1 6.91,11.48 7.33,11 L7.33,7.45 C7.20128431,5.87171099 7.70488807,4.30694219 8.73,3.1 C10.1,1.54 12.32,0.75 15.33,0.75 C18.35,0.75 20.57,1.55 21.93,3.1 C22.4,3.64 22.72,4.2 22.93,4.74 C23.9559243,4.36843714 25.0388637,4.17892274 26.13,4.18 C34.01,4.24 34.27,12.21 34.28,12.29 C34.37,16.98 37.27,21.59 38.51,23.37 C38.8504803,23.8564596 38.9546705,24.4700431 38.7938522,25.0416262 C38.6330339,25.6132093 38.2241857,26.0824465 37.68,26.32 C36.6251699,26.7052424 35.498917,26.8554094 34.38,26.76 L30.03,26.76 C30.17,27.02 30.34,27.2 30.5,27.28 L37,30.1 C38.8363467,31.0079034 39.9961821,32.8814835 39.99,34.93 L40,34.93 Z M29.33,34.7 C29.33,32.92 28.34,31.32 26.75,30.52 L20.38,27.34 C20.0847343,27.1937252 19.8146781,27.0013102 19.58,26.77 L19.56,26.77 L19.41,26.58 C19.2814667,26.4313278 19.1676039,26.2705805 19.07,26.1 L19.05,26.05 C18.8995323,25.7744977 18.7916431,25.4778022 18.73,25.17 L18.71,25.07 C18.6833547,24.9046667 18.6699787,24.7374667 18.67,24.57 L18.67,21.82 L18.83,21.63 C19.9207369,20.2851426 20.7515592,18.748969 21.28,17.1 L21.38,16.78 L21.72,16.68 C22.29,16.5 22.67,15.99 22.67,15.41 L22.67,12.74 C22.67,12.37 22.51,12.02 22.22,11.76 L22,11.56 L22,7.33 C22,7.33 22.02,7.23 22.02,7.08 L22.02,7.06 L22.02,6.9 L22.02,6.87 L22.01,6.67 L22.01,6.65 C21.9982783,6.4824439 21.9782537,6.31557225 21.95,6.15 L21.92,6.02 L21.89,5.88 C21.7317462,5.17213833 21.3982057,4.51537299 20.92,3.97 C19.82,2.72 17.94,2.08 15.33,2.08 C12.73,2.08 10.83,2.72 9.73,3.98 C8.43,5.46 8.66,7.31 8.66,7.33 L8.66,11.56 L8.45,11.76 C8.15,12.02 8,12.37 8,12.74 L8,15.41 C8,15.86 8.23,16.28 8.62,16.53 L8.84,16.67 L8.9,16.94 C9.53,19.65 11.16,21.63 11.18,21.64 L11.33,21.83 L11.33,24.51 C11.3269246,25.6391321 10.7101591,26.6772903 9.72,27.22 L3.77,30.47 C2.26722913,31.2867289 1.33116103,32.8596302 1.33,34.57 L1.33,36.07 L29.33,36.07 L29.33,34.7 Z M38.67,34.93 C38.67,33.39 37.81,32 36.43,31.3 L29.93,28.49 C29.33,28.19 28.96,27.62 28.75,27.2 C28.56,26.82 28.58,26.38 28.81,26.02 C29.03,25.65 29.42,25.43 29.85,25.43 L34.45,25.43 C34.52,25.43 36.04,25.57 37.15,25.09 C37.4,24.99 37.48,24.79 37.51,24.69 C37.5673197,24.4993991 37.5341552,24.2930425 37.42,24.13 C36.11,22.26 33.04,17.37 32.94,12.32 C32.94,12.04 32.7,5.56 26.14,5.51 C25.1,5.51 24.14,5.69 23.28,6.03 C23.38,6.74 23.35,7.29 23.33,7.45 L23.33,11 C23.76,11.48 24,12.1 24,12.74 L24,15.41 C24,16.46 23.39,17.39 22.45,17.82 C21.8929674,19.4474395 21.0646117,20.9689092 20,22.32 L20,24.57 C20,24.73 20.02,24.88 20.06,25.03 L20.16,25.26 L20.23,25.43 L21.71,25.43 C22.21,25.43 22.64,25.73 22.8,26.21 C22.9,26.49 22.88,26.79 22.77,27.04 L27.34,29.33 C29.3822756,30.339558 30.6735134,32.4218242 30.67,34.7 L30.67,36.06 L38.67,36.06 L38.67,34.93 Z" id="z6yea"></path>
        </symbol>
        <symbol id="icon-timeline" viewBox="0 0 34 30">
            <title>timeline</title>
            <path d="M0,0.6 L33.33,0.6 L33.33,1.94 L0,1.94 L0,0.6 Z M0,9.93 L33.33,9.93 L33.33,11.26 L0,11.26 L0,9.93 Z M0,19.26 L33.33,19.26 L33.33,20.59 L0,20.59 L0,19.26 Z M0,28.59 L33.33,28.59 L33.33,29.92 L0,29.92 L0,28.59 Z" id="7aiua"></path>
        </symbol>
        <symbol id="icon-unfold-column" viewBox="0 0 1024 1024">
            <title>unfold-column</title>
            <path class="path1" d="M-1.408 512l362.040 362.040 45.256-45.256-316.785-316.785 316.785-316.785-45.256-45.256zM618.112 828.785l45.256 45.256 362.040-362.040-362.040-362.040-45.256 45.256 316.785 316.785z"></path>
        </symbol>
        <symbol id="icon-unfold-row" viewBox="0 0 1024 1024">
            <title>unfold-row</title>
            <path class="path1" d="M512 1025.408l362.040-362.040-45.256-45.256-316.785 316.785-316.785-316.785-45.256 45.256zM828.785 405.888l45.256-45.256-362.040-362.040-362.040 362.040 45.256 45.256 316.785-316.785z"></path>
        </symbol>
        <symbol id="icon-unwatch" viewBox="0 0 1024 1024">
            <title>unwatch</title>
            <path
                class="path1"
                d="M201.344 170.004l-45.248 45.256 47.703 47.706c-129.385 82.132-204.687 197.21-203.791 247.107 1.469 81.754 205.911 335.24 511.992 338.573 84.966 0.927 162.112-18.235 229.286-48.195l53.545 53.545 45.261-45.256-638.748-638.735zM512 171.489c-68.646 0-132.029 12.57-189.117 33.011l57.211 57.211c41.459-11.546 84.319-17.915 127.268-18.529 157.983-1.58 313.549 76.836 409.17 202.071 14.28 21.998 38.886 45.43 31.391 74.030-33.587 66.335-84.716 122.171-145.408 164.849l50.903 50.906c107.418-79.014 170.048-178.22 170.58-224.965 0.963-84.736-201.498-338.58-512-338.58zM514.099 308.424c-2.35 0-4.703 0.038-7.058 0.123-23.073 0.205-45.696 4.897-66.898 13.215l61.402 61.399c3.533-0.287 7.076-0.448 10.619-0.44 62.472-1.426 120.077 49.203 126.446 111.196 1.344 9.050 1.546 18.13 0.781 27.090l61.071 61.069c20.096-53.402 17.887-115.338-9.964-165.88-33.58-64.64-103.578-107.587-176.397-107.768zM255.532 314.696l86.84 86.84c-13.005 19.942-22.495 42.163-27.277 65.766-19.901 84.465 22.907 177.935 99.116 219.028 63.25 36.731 145.746 32.732 206.725-6.231l65.382 65.382c-24.11 9.096-48.804 16.42-73.769 21.811-183.327 38.252-382.523-41.779-498.022-188.237-15.196-24.325-42.565-45.701-40.192-77.112 41.221-78.572 105.382-142.551 181.197-187.249zM396.838 456l169.774 169.774c-7.16 3.354-14.682 6.031-22.52 7.872-59.418 16.41-126.899-16.742-149.44-73.754-14.625-33.093-12.657-71.585 2.189-103.892z"></path>
        </symbol>
        <symbol id="icon-user" viewBox="0 0 1024 1024">
            <title>user</title>
            <path
                class="path1"
                d="M512 0c-139.443 0-253.166 113.725-253.166 253.169s113.725 253.176 253.169 253.176c139.448 0 253.179-113.728 253.179-253.174-0.003-139.446-113.733-253.171-253.181-253.171zM512 64c104.858 0 189.179 84.314 189.179 189.169 0 104.858-84.319 189.176-189.176 189.176-104.852 0-189.166-84.316-189.166-189.174s84.311-189.171 189.164-189.171zM511.974 546.9c-224.64 0.056-404.209 201.052-405.176 444.969l-0.128 32.128h810.662l-0.128-32.128c-0.973-243.935-180.557-444.938-405.217-444.972zM511.974 610.9h0.026c176.819 0.036 324.308 151.68 339.643 349.1h-679.27c15.334-197.402 162.806-349.041 339.61-349.1z"></path>
        </symbol>
        <symbol id="icon-wiki" viewBox="0 0 40 35">
            <title>wiki</title>
            <path d="M40,3.46 L40,29.44 C40,30.91 38.8,32.11 37.33,32.11 L22.67,32.11 C21.9,32.11 20.67,33.02 20.67,34.11 C20.67,34.4800308 20.3700308,34.78 20,34.78 C19.6299692,34.78 19.33,34.4800308 19.33,34.11 C19.33,33.02 18.1,32.11 17.33,32.11 L2.67,32.11 C1.19539972,32.11 3.55271368e-15,30.9146003 3.55271368e-15,29.44 L3.55271368e-15,3.46 C3.55271368e-15,1.99 1.2,0.79 2.67,0.79 L18,0.79 C18.8,0.79 19.51,1.15 20,1.71 C20.49,1.15 21.2,0.79 22,0.79 L37.33,0.79 C38.8,0.79 40,1.99 40,3.46 Z M19.33,3.46 C19.33,2.72 18.73,2.12 18,2.12 L2.67,2.12 C1.93,2.12 1.33,2.72 1.33,3.46 L1.33,29.44 C1.33,30.18 1.93,30.77 2.67,30.77 L17.33,30.77 C18,30.77 18.73,31.07 19.33,31.54 L19.33,3.46 Z M38.67,3.46 C38.67,2.72 38.07,2.12 37.33,2.12 L22,2.12 C21.26,2.12 20.67,2.72 20.67,3.46 L20.67,31.54 C21.27,31.06 22,30.77 22.67,30.77 L37.33,30.77 C38.07,30.77 38.67,30.17 38.67,29.44 L38.67,3.46 Z" id="r37xa"></path>
        </symbol>
        <symbol id="icon-archive" viewBox="0 0 1024 1024">
            <title>archive</title>
            <path
                class="path1"
                d="M512.65 0l-512.571 136.453v736.753l511.964 150.794 511.956-150.794v-736.932l-0.512 0.148-510.84-136.422zM60.262 217.508l421.258 124.083v609.91l-421.258-124.083v-609.907zM963.819 217.508v609.91l-421.261 124.083v-609.912l421.261-124.083zM105.247 319.135v122.86l318.072 97.3v-122.86l-318.077-97.3z"></path>
        </symbol>
        <symbol id="icon-arrow-down" viewBox="0 0 1024 1024">
            <title>arrow-down</title>
            <path class="path1" d="M975.688 234.772l-466.061 464.031-461.199-461.517-45.271 45.24 506.355 506.701 511.334-509.1-45.158-45.356z"></path>
        </symbol>
        <symbol id="icon-arrow-left" viewBox="0 0 1024 1024">
            <title>arrow-left</title>
            <path class="path1" d="M789.228 975.688l-464.031-466.061 461.517-461.199-45.24-45.271-506.701 506.355 509.1 511.334 45.356-45.158z"></path>
        </symbol>
        <symbol id="icon-arrow-right" viewBox="0 0 1024 1024">
            <title>arrow-right</title>
            <path class="path1" d="M234.772 975.688l464.031-466.061-461.517-461.199 45.24-45.271 506.701 506.355-509.1 511.334-45.356-45.158z"></path>
        </symbol>
        <symbol id="icon-arrow-up" viewBox="0 0 1024 1024">
            <title>arrow-up</title>
            <path class="path1" d="M975.688 789.228l-466.061-464.031-461.199 461.517-45.271-45.24 506.355-506.701 511.334 509.1-45.158 45.356z"></path>
        </symbol>
        <symbol id="icon-attachment" viewBox="0 0 1024 1024">
            <title>attachment</title>
            <path
                class="path1"
                d="M662.461 0.492l-573.568 572.526 45.215 45.294 528.353-527.393 226.542 226.084-617.208 616.082-136.796-136.515 519.439-518.495 44.329 44.237-424.929 424.159 45.215 45.297 470.316-469.463-134.938-134.651-610.028 608.922 227.389 226.934 707.802-706.509-317.13-316.513z"></path>
        </symbol>
        <symbol id="icon-briefcase" viewBox="0 0 30 27">
            <title>briefcase</title>
            <path d="M20.6,2 L20.6,2.91 C20.5615173,3.20370895 20.3112193,3.42335145 20.015,3.42335145 C19.7187807,3.42335145 19.4684827,3.20370895 19.43,2.91 L19.43,2 C19.43,1.54160366 19.0583963,1.17 18.6,1.17 L11.47,1.17 C11.0116037,1.17 10.64,1.54160366 10.64,2 L10.64,2.91 C10.6015173,3.20370895 10.3512193,3.42335145 10.055,3.42335145 C9.75878072,3.42335145 9.50848267,3.20370895 9.47,2.91 L9.47,2 C9.47,0.9 10.37,0 11.47,0 L18.6,0 C19.7045695,0 20.6,0.8954305 20.6,2 Z M30,7.59 L30,12.87 C30,13.13 29.83,13.37 29.58,13.43 L29.22,13.53 L29.22,25.71 C29.22,26.42 28.64,27 27.93,27 L2.07,27 C1.35202983,27 0.77,26.4179702 0.77,25.7 L0.77,13.45 L0.42,13.35 C0.1688846,13.2744505 -0.00222930433,13.0422245 2.77555756e-16,12.78 L2.77555756e-16,7.58 C0.00550922154,6.00437226 1.28436263,4.72999037 2.86,4.73 L27.14,4.73 C28.7195344,4.73 30,6.01046562 30,7.59 Z M5.23,24.15 C5.23,23.27 4.51,22.55 3.63,22.55 L1.95,22.55 L1.95,25.71 C1.95,25.78 2,25.83 2.07,25.83 L5.23,25.83 L5.23,24.15 Z M28.05,22.55 L26.37,22.55 C25.49,22.55 24.77,23.27 24.77,24.15 L24.77,25.83 L27.93,25.83 C28,25.83 28.05,25.78 28.05,25.71 L28.05,22.55 Z M28.05,21.38 L28.05,13.88 L17.71,16.86 L17.71,18.72 C17.71,19.05 17.44,19.31 17.12,19.31 L12.88,19.31 C12.554152,19.31 12.29,19.045848 12.29,18.72 L12.29,16.84 L1.95,13.79 L1.95,21.39 L3.63,21.39 C5.15593201,21.3899901 6.39449122,22.6240779 6.4,24.15 L6.4,25.83 L23.6,25.83 L23.6,24.15 C23.6,22.6201712 24.8401712,21.38 26.37,21.38 L28.05,21.38 Z M16.53,18.14 L16.53,15.28 L13.47,15.28 L13.47,18.14 L16.53,18.14 Z M28.83,12.44 L28.83,7.59 C28.83,6.66 28.07,5.89 27.13,5.89 L24.56,5.89 L24.56,7.92 C24.5215173,8.21370895 24.2712193,8.43335145 23.975,8.43335145 C23.6787807,8.43335145 23.4284827,8.21370895 23.39,7.92 L23.39,5.9 L6.4,5.9 L6.4,7.92 C6.36151733,8.21370895 6.11121928,8.43335145 5.815,8.43335145 C5.51878072,8.43335145 5.26848267,8.21370895 5.23,7.92 L5.23,5.9 L2.86,5.9 C1.93,5.9 1.17,6.66 1.17,7.59 L1.17,12.34 L12.29,15.62 L12.29,14.7 C12.29,14.38 12.56,14.11 12.88,14.11 L17.12,14.11 C17.44,14.11 17.71,14.38 17.71,14.7 L17.71,15.64 L28.83,12.44 Z M23.97,9.6 C24.197262,9.57022341 24.4212033,9.67476141 24.5443149,9.86809585 C24.6674264,10.0614303 24.6674264,10.3085697 24.5443149,10.5019041 C24.4212033,10.6952386 24.197262,10.7997766 23.97,10.77 C23.6762911,10.7315173 23.4566485,10.4812193 23.4566485,10.185 C23.4566485,9.88878072 23.6762911,9.63848267 23.97,9.6 Z M5.81,9.6 C6.03726201,9.57022341 6.26120329,9.67476141 6.38431486,9.86809585 C6.50742644,10.0614303 6.50742644,10.3085697 6.38431486,10.5019041 C6.26120329,10.6952386 6.03726201,10.7997766 5.81,10.77 C5.51629105,10.7315173 5.29664855,10.4812193 5.29664855,10.185 C5.29664855,9.88878072 5.51629105,9.63848267 5.81,9.6 Z" id="r5sva"></path>
        </symbol>
        <symbol id="icon-bubble-empty" viewBox="0 0 1024 1024">
            <title>bubble-empty</title>
            <path class="path1" d="M0 0v768h175.544v256h66.696l165.471-256h616.289v-768zM64 64h896v640l-580.854 0.914-139.602 218.854v-155.768h0.031l0.041-64h-175.616z"></path>
        </symbol>
        <symbol id="icon-bubble" viewBox="0 0 1024 1024">
            <title>bubble</title>
            <path class="path1" d="M0 0v768h175.544v256h66.696l165.471-256h616.289v-768h-1024z"></path>
        </symbol>
        <symbol id="icon-bug" viewBox="0 0 31 32">
            <title>bug</title>
            <path d="M30.88,21.42 C31.0422241,21.6744117 30.9822895,22.010709 30.7421629,22.193414 C30.5020362,22.3761191 30.1619347,22.3441971 29.96,22.12 L28.4,20.04 L25.78,20.04 L25.78,21.4 C25.78,22.54 25.58,23.64 25.21,24.65 L27.54,24.65 C27.77,24.65 27.97,24.79 28.06,25 L30.37,30.19 C30.4876008,30.3819525 30.4835094,30.6246157 30.3595043,30.8124946 C30.2354992,31.0003734 30.013981,31.0995292 29.7912522,31.066855 C29.5685234,31.0341809 29.3848181,30.8755791 29.32,30.66 L27.16,25.81 L24.7,25.81 C23.0524472,28.9956924 19.7665108,30.9973368 16.18,31 L15.76,31 C12.1713004,30.9954036 8.88481905,28.9895699 7.24,25.8 L4.84,25.8 L2.68,30.66 C2.61518193,30.8755791 2.4314766,31.0341809 2.20874779,31.066855 C1.98601898,31.0995292 1.76450079,31.0003734 1.64049572,30.8124946 C1.51649064,30.6246157 1.51239916,30.3819525 1.63,30.19 L3.93,24.99 C4.03,24.79 4.23,24.65 4.46,24.65 L6.73,24.65 C6.35306835,23.6078917 6.16019617,22.5081819 6.16,21.4 L6.16,20.04 L3.6,20.04 L2.04,22.12 C1.92242116,22.3043957 1.71111889,22.4069785 1.49350184,22.3853135 C1.27588479,22.3636484 1.088955,22.2214193 1.01003903,22.0174614 C0.931123059,21.8135035 0.973639217,21.5824964 1.12,21.42 L2.85,19.12 C2.95,18.97 3.13,18.88 3.31,18.88 L6.16,18.88 L6.16,15.42 L3.31,15.42 C3.09000568,15.420584 2.88861771,15.296653 2.79,15.1 L1.06,11.64 C0.967633141,11.3650825 1.09253083,11.0641958 1.35243478,10.9355055 C1.61233873,10.8068152 1.92734979,10.889883 2.09,11.13 L3.67,14.27 L6.18,14.27 C6.45580774,9.72198557 9.82082493,5.95962318 14.31,5.18 L12.21,3.78 C12.1962343,3.77058989 12.1828881,3.76058026 12.17,3.75 L12.15,3.73 C12.1396179,3.72038956 12.1296104,3.71038212 12.12,3.7 L12.1,3.69 C12.0893877,3.67713703 12.079377,3.66378939 12.07,3.65 L12.07,3.63 C12.0460184,3.59564967 12.0258969,3.55876017 12.01,3.52 L12,3.5 C11.9870141,3.4676363 11.9769735,3.43416741 11.97,3.4 L11.97,3.37 C11.9689994,3.35001252 11.9689994,3.32998748 11.97,3.31 L11.97,1.58 C11.9404574,1.35646755 12.04314,1.13607167 12.2332845,1.01489162 C12.423429,0.893711567 12.666571,0.893711567 12.8567155,1.01489162 C13.04686,1.13607167 13.1495426,1.35646755 13.12,1.58 L13.12,3 L16,4.92 L18.88,3 L18.88,1.58 C18.88,1.25967485 19.1396748,1 19.46,1 C19.7803252,1 20.04,1.25967485 20.04,1.58 L20.04,3.39 C20.0301653,3.42784601 20.0167723,3.46467676 20,3.5 L20,3.52 C19.984178,3.55879575 19.964052,3.59569333 19.94,3.63 L19.93,3.65 C19.9066456,3.68278818 19.879824,3.71296258 19.85,3.74 L19.83,3.74 C19.8142981,3.75760428 19.7976043,3.77429809 19.78,3.79 L17.68,5.19 C21.9212299,5.93140137 25.1848734,9.34910506 25.73,13.62 L25.73,13.81 L25.76,14.27 L28.33,14.27 L29.91,11.13 C29.981999,10.9157047 30.1719498,10.7627706 30.396674,10.7381666 C30.6213983,10.7135627 30.8399404,10.8217729 30.9566023,11.0154127 C31.0732641,11.2090524 31.0667842,11.4528313 30.94,11.64 L29.21,15.1 C29.11,15.3 28.91,15.42 28.69,15.42 L25.78,15.42 L25.78,18.88 L28.69,18.88 C28.87,18.88 29.04,18.97 29.15,19.12 L30.88,21.42 Z M15.45,14.27 L7.34,14.27 L7.32,14.67 L7.32,15.42 L10.23,15.42 C10.5503252,15.42 10.81,15.6796748 10.81,16 C10.81,16.3203252 10.5503252,16.58 10.23,16.58 L7.32,16.58 L7.32,19.28 C7.35818407,19.3969625 7.35818407,19.5230375 7.32,19.64 L7.32,21.4 C7.31888915,22.6937406 7.61662818,23.970254 8.19,25.13 C9.56074118,27.8995429 12.3324844,29.7013676 15.42,29.83 L15.45,14.27 Z M24.45,13.12 C23.6254199,9.09483258 20.0887443,6.20118893 15.98,6.19 C11.8736324,6.20206694 8.34031098,9.0963834 7.52,13.12 L24.45,13.12 Z M24.62,21.4 L24.62,14.85 C24.62,14.65 24.62,14.46 24.6,14.27 L16.6,14.27 L16.58,29.84 C21.0798206,29.6163317 24.6149044,25.9053731 24.62,21.4 Z M12.54,16 C12.5383858,16.1505526 12.4772712,16.2943516 12.37,16.4 C12.3165465,16.4562515 12.2517949,16.5005552 12.18,16.53 C12.1109096,16.5616899 12.0360005,16.5787147 11.96,16.58 C11.8457206,16.5794991 11.7342302,16.5446584 11.64,16.48 C11.544725,16.4172146 11.4713357,16.3263517 11.43,16.22 C11.3983101,16.1509096 11.3812853,16.0760005 11.38,16 C11.3797475,15.7218903 11.5769376,15.4827449 11.85,15.43 C12.0392443,15.3918318 12.2349466,15.4520479 12.37,15.59 C12.47,15.69 12.54,15.85 12.54,16 Z" id="nofpa"></path>
        </symbol>
        <symbol id="icon-capslock" viewBox="0 0 1024 1024">
            <title>capslock</title>
            <path class="path1" d="M509.517 105.644l-506.36 506.701 45.271 45.235 461.202-461.509 466.063 464.026 45.153-45.353-511.334-509.1zM0 854.356v64h1024v-64h-1024z"></path>
        </symbol>
        <symbol id="icon-check" viewBox="0 0 1024 1024">
            <title>check</title>
            <path class="path1" d="M0 0v1024h1024v-1024zM64 64h896v896h-896zM848.786 226.24l-445.765 481.075-229.622-209.656-41.254 48.932 278.548 250.906 487.022-530.002z"></path>
        </symbol>
        <symbol id="icon-clipboard" viewBox="0 0 1024 1024">
            <title>clipboard</title>
            <path
                class="path1"
                d="M202.24-0.179v129.093l-202.24-0.11v895.375h729.6v-234.419h-64v170.419h-601.6v-644.385h601.6v287.086h64v-474.076h-64v0.11h-138.24v-129.093h-325.12zM266.24 63.821h197.12v96.44h0.32v32.653h201.92v58.88h-601.6v-58.88h202.24v-129.093zM129.165 393.242v64h468.838v-64h-468.836zM522.76 515.302l-181.020 181.018 181.020 181.020 45.256-45.253-103.759-103.767h559.744v-64h-559.749l103.764-103.764-45.253-45.256zM129.165 541.722v64h228.086v-64h-228.083zM129.165 690.202v64h150.246v-64h-150.246zM129.165 833.562v64h258.854v-64h-258.854z"></path>
        </symbol>
        <symbol id="icon-document" viewBox="0 0 1024 1024">
            <title>document</title>
            <path
                class="path1"
                d="M477.23 0l-355.63 355.246v668.754h780.8v-1024h-425.17zM513.070 64h325.33v896h-652.8v-568.914h327.47v-327.086zM357.939 520.422v64h406.246v-64h-406.246zM536.1 668.902v64h228.086v-64h-228.086zM295.345 817.382v64h468.838v-64h-468.836z"></path>
        </symbol>
        <symbol id="icon-documents" viewBox="0 0 1024 1024">
            <title>documents</title>
            <path class="path1" d="M121.6 355.246v668.754h780.8v-1024h-425.17zM513.070 64h325.33v896h-652.8v-568.914h327.47z"></path>
        </symbol>
        <symbol id="icon-downvote" viewBox="0 0 1024 1024">
            <title>downvote</title>
            <path class="path1" d="M512 793.6l512-563.2h-1024z"></path>
        </symbol>
        <symbol id="icon-edit" viewBox="0 0 25 25">
            <title>edit</title>
            <path d="M23.8,6.95 L7.49,23.27 L7.48,23.27 L7.45,23.3 C7.40853055,23.3348782 7.36110265,23.3619799 7.31,23.38 L7.27,23.38 L0.56,24.98 C0.407287087,25.019482 0.244993877,24.9779651 0.13,24.87 C0.0845057566,24.8214252 0.0503521949,24.7633642 0.03,24.7 C0.0115126388,24.6520786 0.0013660695,24.6013457 0,24.55 L0,24.53 L0.01,24.44 L1.61,17.72 L1.61,17.71 L1.63,17.68 C1.64465004,17.6406588 1.66485486,17.6036166 1.69,17.57 L1.71,17.53 L1.73,17.51 L18.05,1.19 C19.6646272,-0.244930309 22.1178664,-0.172713691 23.64529,1.35470996 C25.1727137,2.88213361 25.2449303,5.33537279 23.81,6.95 L23.8,6.95 Z M19.04,1.54 L23.46,5.96 C24.3552756,4.69923891 24.210293,2.97650235 23.1168953,1.88310466 C22.0234977,0.789706968 20.3007611,0.644724356 19.04,1.54 Z M21.57,7.91 L17.09,3.43 L16.45,4.07 L20.93,8.55 L21.57,7.91 Z M2.24,23.39 L1.9,23.74 L6.76,22.58 L6.98,20.58 L4.66,20.84 L4.56,20.84 L4.51,20.82 C4.47567505,20.8136656 4.44214342,20.8036061 4.41,20.79 C4.2877662,20.7276366 4.19975709,20.6139582 4.17,20.48 L4.17,20.39 L4.17,20.34 L4.42,18.02 L2.42,18.24 L1.26,23.1 L1.6,22.76 C1.71432499,22.645675 1.88095729,22.601026 2.03712813,22.6428719 C2.19329897,22.6847177 2.31528228,22.806701 2.35712813,22.9628719 C2.39897398,23.1190427 2.35432499,23.285675 2.24,23.4 L2.24,23.39 Z M7.76,21.72 L20.29,9.19 L15.81,4.71 L3.28,17.24 L4.72,17.08 L14.85,6.95 C15.0267311,6.77326888 15.3132689,6.77326888 15.49,6.95 C15.6667311,7.12673112 15.6667311,7.41326888 15.49,7.59 L5.36,17.72 L5.12,19.88 L7.28,19.64 L17.41,9.51 C17.5867311,9.33326888 17.8732689,9.33326888 18.05,9.51 C18.2267311,9.68673112 18.2267311,9.97326888 18.05,10.15 L7.92,20.28 L7.76,21.72 Z M22.85,6.62 L18.37,2.15 L17.73,2.79 L22.21,7.27 L22.85,6.62 Z" id="u27ba"></path>
        </symbol>
        <symbol id="icon-error" viewBox="0 0 1024 1024">
            <title>error</title>
            <path
                class="path1"
                d="M512 0c-282.394 0-512 229.606-512 512s229.606 512 512 512 512-229.606 512-512-229.606-512-512-512zM512 64c247.803 0 448 200.197 448 448s-200.197 448-448 448-448-200.197-448-448 200.197-448 448-448zM275.256 230.001l-45.256 45.251 236.744 236.749-236.744 236.744 45.256 45.256 236.744-236.744 236.744 236.744 45.256-45.256-236.744-236.744 236.744-236.749-45.253-45.251-236.749 236.744z"></path>
        </symbol>
        <symbol id="icon-filters-empty" viewBox="0 0 1024 1024">
            <title>filters-empty</title>
            <path class="path1" d="M0 75.131l416 457.6v236.938l192 179.2v-416.138l416-457.6h-1024zM138.921 136.571h746.179l-338.54 372.398v298.47l-66.186-61.788 0.41-235.331-341.86-373.75z"></path>
        </symbol>
        <symbol id="icon-filters" viewBox="0 0 1024 1024">
            <title>filters</title>
            <path class="path1" d="M0 75.131l416 457.6v236.938l192 179.2v-416.138l416-457.6h-1024z"></path>
        </symbol>
        <symbol id="icon-github" viewBox="0 0 1024 1024">
            <title>github</title>
            <path
                class="path1"
                d="M0 560.801q0 128 38.4 204.262 41.068 81.070 127.468 120.003 87.465 41.062 178.662 50.662 82.138 9.6 177.070 9.6 41.068 0 102.932-3.2 51.738-3.2 110.131-14.131 58.404-10.931 100.536-28.534 48-20.262 88.532-54.664 40.535-34.401 62.935-79.734 37.332-76.262 37.332-204.262 0-146.138-83.732-244.27 16.532-49.6 16.532-104 0-71.997-30.932-133.862-63.468 0-113.331 22.4-49.869 22.4-118.136 75.732-83.732-19.738-172.8-19.738-97.068 0-189.868 21.338-69.862-54.938-119.731-77.338t-113.331-22.4q-31.47 61.34-31.47 133.87 0 54.938 16.532 105.070-83.732 98.127-83.732 243.195zM137.6 669.064q0-75.73 43.469-126.397 43.464-50.67 114.399-50.67 28.262 0 120 13.338 46.932 6.93 96.532 6.93t97.068-6.932q93.332-13.338 120-13.338 70.932 0 114.132 50.67 43.2 50.662 43.2 126.397 0 53.868-19.732 94.932-19.738 39.468-49.331 62.669-29.604 23.199-75.469 37.069-75.735 22.93-178.135 22.93h-103.465q-50.668 0-91.735-4.8-43.732-4.27-88-18.67-44.262-14.4-73.062-36.265-31.47-24.52-50.67-65.326-19.2-40.801-19.2-92.534zM236.268 669.064q0 25.070 8 50.67 8 27.732 27.469 47.734 19.464 19.999 43.464 19.999 25.6 0 44.8-20.8 33.6-38.938 33.6-97.603 0-24.532-6.932-50.132-8-27.73-27.469-47.731-19.466-19.999-43.999-19.999-25.6 0-44.8 21.332-34.132 36.8-34.132 96.532zM630.4 669.064q0 25.070 8 50.67 8 27.735 27.2 47.734t43.2 19.999q26.132 0 45.332-20.8 33.6-38.938 33.6-97.603 0-22.932-7.465-50.132-8-27.73-27.469-47.731-19.466-19.999-43.999-19.999-25.6 0-43.732 21.332-34.668 36.8-34.668 96.532z"></path>
        </symbol>
        <symbol id="icon-maximize" viewBox="0 0 1024 1024">
            <title>maximize</title>
            <path
                class="path1"
                d="M0 0v325.519h63.734v-216.182l277.88 279.278 45.066-45.292-277.88-279.273h215.099v-64.051h-323.899zM700.101 0v64.051h215.104l-277.88 279.27 45.066 45.294 277.875-279.278v216.182h63.734v-325.519h-323.899zM341.614 635.384l-277.88 279.27v-216.174h-63.734v325.519h323.899v-64.051h-215.099l277.88-279.27-45.066-45.294zM682.391 635.384l-45.069 45.292 277.88 279.27h-215.104v64.054h323.901v-325.519h-63.731v216.174l-277.875-279.27z"></path>
        </symbol>
        <symbol id="icon-minimize" viewBox="0 0 1024 1024">
            <title>minimize</title>
            <path
                class="path1"
                d="M45.066 0l-45.066 45.286 277.88 279.278h-215.101v64.051h323.901v-325.522h-63.736v216.177l-277.88-279.27zM978.936 0l-277.88 279.27v-216.177h-63.736v325.522h323.901v-64.051h-215.101l277.88-279.278-45.064-45.286zM62.776 635.384v64.051h215.101l-277.878 279.278 45.066 45.286 277.878-279.27v216.177h63.736v-325.522h-323.901zM637.317 635.384v325.522h63.736v-216.177l277.88 279.27 45.066-45.286-277.88-279.281h215.101v-64.051h-323.901z"></path>
        </symbol>
        <symbol id="icon-move" viewBox="0 0 1024 1024">
            <title>move</title>
            <path
                class="path1"
                d="M794.004 118.164l-45.256 45.256 152.742 152.74h-901.491v64h901.491l-152.742 152.74 45.256 45.256 229.996-229.996zM229.996 445.844l-229.996 229.996 229.996 229.996 45.256-45.256-152.742-152.74h901.491v-64h-901.491l152.742-152.74z"></path>
        </symbol>
        <symbol id="icon-reload" viewBox="0 0 1024 1024">
            <title>reload</title>
            <path
                class="path1"
                d="M509.394 0c-233.518 0-429.484 165.98-447.278 381.896h60.073c17.953-175.969 181.99-317.737 387.205-317.737 182.817 0 332.954 112.517 376.243 261.486l-153.408-44.155-15.462 61.97 242.309 69.745 64.924-260.285-57.69-16.604-34.412 137.951c-62.42-161.050-229.647-274.266-422.502-274.266zM64.927 610.796l-64.927 260.285 57.69 16.604 34.412-137.951c62.42 161.050 229.647 274.266 422.502 274.266 233.523 0 429.486-165.98 447.283-381.896h-60.076c-17.953 175.967-181.99 317.737-387.205 317.737-182.817 0-332.954-112.517-376.243-261.486l153.408 44.155 15.462-61.97-242.309-69.745z"></path>
        </symbol>
        <symbol id="icon-save" viewBox="0 0 1024 1024">
            <title>save</title>
            <path class="path1" d="M0 0v1024h1024v-797.199l-226.801-226.801h-733.199zM232.924 68.859h558.147v342.697h-558.147zM616.883 119.434v220.16h110.080v-220.16z"></path>
        </symbol>
        <symbol id="icon-upload" viewBox="0 0 1024 1024">
            <title>upload</title>
            <path class="path1" d="M509.517 0l-352.76 355.354 45.271 45.524 277.972-280.028v744.174h64v-739.661l278.093 278.047 45.153-45.645zM0 959.59v64.41h1024v-64.41z"></path>
        </symbol>
        <symbol id="icon-upvote" viewBox="0 0 1024 1024">
            <title>upvote</title>
            <path class="path1" d="M512 230.4l512 563.2h-1024z"></path>
        </symbol>
        <symbol id="icon-writer" viewBox="0 0 1024 1024">
            <title>writer</title>
            <path class="path1" d="M956.918 0c-3.584 0.758-149.99 33.782-305.971 85.171-79.708 26.26-163.092 57.866-234.691 94.321s-131.917 76.168-165.699 128.197c-61.824 95.206-74.56 225.979-74.803 333.338-0.2 85.069 8.448 155.786 12.083 181.811l-187.837 201.162 93.993-0.289 147.005-158.354c31.788 4.362 89.759 10.982 156.017 11.871 99.533 1.331 217.201-7.265 295.88-67.046 41.426-31.473 78.024-87.235 115.21-154.532 37.189-67.297 73.336-146.099 105.242-221.558 63.823-150.904 110.653-288.735 110.653-288.735l-58.56-23.099s-46.195 135.834-108.846 283.981c-11.277 26.67-23.101 53.714-35.251 80.41h-172.831v67.174h141.036c-11.592 23.519-23.314 46.259-35.034 67.466-2.714 4.908-5.432 9.708-8.156 14.451h-214.513v67.18h171.674c-17.364 24.102-33.48 42.419-46.574 52.367-55.066 41.838-164.762 56.033-259.154 54.769-40.33-0.538-73.882-2.934-100.275-5.581l701.642-755.799zM871.562 90.593l-627.799 672.346c-2.944-29.251-5.765-69.914-5.645-121.743 0.23-101.023 15.455-220.943 63.544-294.999 9.318-14.349 24.781-29.967 44.902-45.875v200.893h62.367v-242.552c10.829-6.254 22.162-12.424 33.971-18.437 13.507-6.876 27.589-13.609 42.074-20.198v138.977h62.367v-165.504c39.88-15.928 81.28-30.72 121.838-44.083 75.53-24.883 147.789-44.826 202.378-58.824z"></path>
        </symbol>
        <symbol id="icon-watch" viewBox="0 0 22 13">
            <title>watch</title>
            <path d="M22.83,5.99 C23.06,6.29 23.06,6.71 22.83,7.02 C20.01,10.72 16.2,13 11.99,13 C7.78,13 3.96,10.72 1.15,7.01 C0.921665154,6.70463036 0.921665154,6.28536964 1.15,5.98 C3.96,2.28 7.78,0 11.99,0 C16.19,0 20.01,2.28 22.83,5.99 Z M16.61,6.79 C16.68789,5.46719587 16.1927996,4.17483939 15.2510426,3.24265307 C14.3092856,2.31046675 13.0119395,1.82860261 11.69,1.92 C9.38,2.07 7.51,3.92 7.37,6.2 C7.24409417,7.86129028 8.0204593,9.46212704 9.40295557,10.3918806 C10.7854518,11.3216342 12.5608757,11.4369215 14.0520024,10.6937668 C15.5431291,9.95061209 16.5200024,8.46362199 16.61,6.8 L16.61,6.79 Z M12.15,8.96 C11.4382838,9.01014768 10.7394478,8.75133925 10.2320769,8.24971225 C9.72470612,7.74808526 9.45795834,7.05224103 9.5,6.34 C9.59682247,5.10067339 10.5895228,4.12075463 11.83,4.04 C12.5417162,3.98985232 13.2405522,4.24866075 13.7479231,4.75028775 C14.2552939,5.25191474 14.5220417,5.94775897 14.48,6.66 C14.3831775,7.89932661 13.3904772,8.87924537 12.15,8.96 Z" id="6z7ia"></path>
        </symbol>
        <symbol id="icon-check-empty" viewBox="0 0 1024 1024">
            <title>check-empty</title>
            <path class="path1" d="M975.199 128l-633.541 676.948-300.511-284.032-41.147 49.395 349.312 325.688 674.688-726.354z"></path>
        </symbol>
        <symbol id="icon-task" viewBox="0 0 23 27">
            <title>task</title>
            <path d="M5.75,9 L17.25,9 L17.25,10.13 L5.75,10.13 L5.75,9 Z M5.75,12.38 L17.25,12.38 L17.25,13.5 L5.75,13.5 L5.75,12.38 Z M5.75,15.75 L17.25,15.75 L17.25,16.87 L5.75,16.87 L5.75,15.75 Z M5.75,19.13 L11.5,19.13 L11.5,20.25 L5.75,20.25 L5.75,19.13 Z M8.63,2.25 L8.63,3.37 L6.9,3.37 L6.9,5.62 L5.75,5.62 L5.75,0 L6.9,0 L6.9,2.25 L8.63,2.25 Z M13.8,2.25 L13.8,3.37 L12.08,3.37 L12.08,5.62 L10.93,5.62 L10.93,0 L12.08,0 L12.08,2.25 L13.8,2.25 Z M23,4.5 L23,24.75 C22.9835306,26.0053089 21.9553677,27.0111205 20.7,27 L2.3,27 C1.03,27 2.27373675e-13,26 2.27373675e-13,24.75 L2.27373675e-13,4.5 C0.0164693911,3.24469105 1.04463227,2.23887954 2.3,2.25 L3.45,2.25 L3.45,3.37 L2.3,3.37 C1.67,3.37 1.15,3.87 1.15,4.5 L1.15,24.75 C1.15,25.37 1.66,25.87 2.3,25.87 L20.7,25.87 C21.33,25.87 21.85,25.37 21.85,24.75 L21.85,4.5 C21.85,3.88 21.34,3.37 20.7,3.37 L17.25,3.37 L17.25,5.62 L16.1,5.62 L16.1,0 L17.25,0 L17.25,2.25 L20.7,2.25 C21.97,2.25 23,3.25 23,4.5 Z" id="kzvva"></path>
        </symbol>
        <symbol id="icon-api" viewBox="0 0 1024 1024">
            <title>api</title>
            <path
                class="path1"
                d="M516.326 0c-39.188 0-74.688 5.32-103.224 15.45-14.269 5.064-26.921 11.169-37.983 20.454-11.059 9.28-21.837 24.123-21.837 42.854 0 0.358 0.026 0.701 0.036 1.055l-94.707 55.296c-25.792 2.189-49.285 6.917-69.338 14.034-14.269 5.064-26.926 11.169-37.99 20.454-10.662 8.947-21.028 23.081-21.76 40.868l-99.553 58.122 3.571 484.316 481.725 271.096 477.24-272.274 1.523-479.037-98.698-59.53c0-0.238 0.026-0.466 0.026-0.704 0-18.729-10.778-33.574-21.837-42.854-11.059-9.285-23.713-15.391-37.983-20.454-20.14-7.15-43.756-11.891-69.678-14.070l-86.682-52.275c0.113-1.331 0.179-2.673 0.179-4.045 0-18.729-10.77-33.572-21.832-42.854-11.059-9.283-23.718-15.386-37.99-20.454-28.529-10.122-64.020-15.447-103.209-15.447zM516.326 64.768c32.973 0 62.797 5.069 81.549 11.725 2.094 0.742 3.441 1.5 5.23 2.268-1.787 0.768-3.139 1.526-5.233 2.268-18.749 6.656-48.576 11.72-81.549 11.72s-62.807-5.069-81.556-11.72c-2.094-0.742-3.446-1.498-5.233-2.268 1.792-0.768 3.139-1.528 5.233-2.271 18.749-6.656 48.581-11.725 81.554-11.725zM386.028 129.459c8.274 5.146 17.28 9.139 27.072 12.616 28.536 10.127 64.036 15.45 103.219 15.45 39.188 0 74.683-5.32 103.219-15.447 9.677-3.436 18.596-7.378 26.796-12.442l17.618 10.179c-12.48 2.419-24.156 5.54-34.854 9.336-14.267 5.064-26.924 11.169-37.985 20.454-11.059 9.28-21.837 24.125-21.837 42.854 0 18.734 10.778 33.574 21.837 42.854 11.059 9.285 23.718 15.391 37.985 20.454 28.539 10.13 64.033 15.45 103.219 15.45s74.685-5.32 103.219-15.447c12.575-4.46 23.885-9.738 33.966-17.28l62.351 35.999-415.859 235.84-415.795-235.853 58.36-33.695c9.242 6.323 19.466 10.993 30.707 14.984 28.536 10.13 64.033 15.45 103.219 15.45 39.183 0 74.685-5.32 103.219-15.447 14.272-5.064 26.924-11.169 37.985-20.454 11.059-9.28 21.837-24.12 21.837-42.854 0-18.729-10.778-33.574-21.837-42.854-11.059-9.285-23.713-15.391-37.983-20.454-9.157-3.251-19.036-5.998-29.517-8.243l19.832-11.448zM292.49 198.477c32.973 0 62.804 5.059 81.554 11.715 2.094 0.742 3.443 1.495 5.233 2.266-1.792 0.768-3.139 1.526-5.233 2.271-18.749 6.656-48.581 11.717-81.554 11.717s-62.807-5.064-81.556-11.717c-2.094-0.742-3.443-1.503-5.233-2.273 1.792-0.773 3.139-1.526 5.233-2.268 18.749-6.656 48.581-11.715 81.556-11.715zM732.316 198.477c32.973 0 62.804 5.059 81.554 11.715 2.092 0.742 3.441 1.495 5.23 2.266-1.792 0.768-3.139 1.526-5.233 2.271-18.752 6.656-48.584 11.717-81.556 11.717s-62.804-5.064-81.556-11.717c-2.094-0.742-3.441-1.503-5.233-2.273 1.792-0.773 3.139-1.526 5.233-2.268 18.752-6.656 48.584-11.715 81.556-11.715zM516.321 272.522c-39.188 0-74.688 5.315-103.224 15.442-14.269 5.069-26.921 11.172-37.983 20.454-11.059 9.283-21.837 24.128-21.837 42.86s10.778 33.572 21.837 42.854c11.064 9.283 23.716 15.391 37.985 20.454 28.536 10.127 64.036 15.447 103.219 15.447 39.188 0 74.683-5.32 103.219-15.447 14.269-5.064 26.926-11.172 37.99-20.454 11.059-9.283 21.832-24.123 21.832-42.854s-10.772-33.577-21.837-42.86c-11.059-9.283-23.716-15.386-37.985-20.454-28.536-10.127-64.031-15.442-103.219-15.442zM516.321 337.29c32.973 0 62.797 5.061 81.549 11.717 2.094 0.742 3.441 1.498 5.23 2.268-1.787 0.768-3.139 1.523-5.233 2.268-18.749 6.656-48.576 11.72-81.549 11.72s-62.807-5.069-81.556-11.72c-2.094-0.742-3.446-1.498-5.233-2.268 1.792-0.768 3.139-1.528 5.233-2.271 18.749-6.656 48.581-11.717 81.554-11.717zM94.72 360.55l389.371 224.801v362.117l-389.371-224.806v-362.112zM933.427 362.811v359.040l-389.376 224.809v-359.048l389.376-224.804z"></path>
        </symbol>
        <symbol id="icon-customize" viewBox="0 0 1024 1024">
            <title>customize</title>
            <path
                class="path1"
                d="M740.291 1.889l-601.078 601.075-136.397 419.149 420.078-141.038 57.201-57.201c-25.226-4.974-73.692-15.168-75.054-15.455l-0.922 0.916-188.306-192.461 524.477-524.477 190.387 190.387-121.262 121.257 10.284 80.225 201.485-201.485-280.893-280.893zM721.49 417.774c-28.303 0-31.882 0.22-35.546 2.186-7.181 3.85-7.921 6.861-10.752 43.479-1.416 18.271-3.059 33.812-3.653 34.534-0.589 0.73-5.473 2.56-10.849 4.063-15.447 4.326-29.952 10.156-45.786 18.412-8.064 4.198-15.304 7.642-16.095 7.642-0.794 0-11.812-8.858-24.489-19.686-28.467-24.32-29.268-24.934-34.035-25.948-6.835-1.452-12.526 2.616-34.348 24.568-21.427 21.55-24.865 26.452-23.406 33.344 0.983 4.634 1.748 5.64 25.907 33.856 10.836 12.652 19.699 23.667 19.699 24.484 0 0.819-3.438 8.082-7.642 16.143-8.256 15.834-14.090 30.336-18.414 45.786-1.505 5.376-3.328 10.266-4.055 10.854-0.727 0.594-16.269 2.235-34.534 3.648-36.618 2.831-39.634 3.579-43.487 10.76-1.964 3.661-2.184 7.24-2.184 35.546 0 28.303 0.22 31.88 2.184 35.543 3.84 7.163 6.912 7.926 42.89 10.691 17.946 1.382 33.434 2.747 34.422 3.041 1.111 0.333 2.883 4.498 4.634 10.916 4.265 15.631 10.061 30.116 18.545 46.395 4.204 8.064 7.642 15.329 7.642 16.146 0 0.819-8.463 11.366-18.806 23.45-29.839 34.849-29.714 34.637-25.19 43.991 3.584 7.393 43.136 46.254 49.037 48.174 7.514 2.445 11.023 0.317 39.096-23.7l26.099-22.323 14.405 7.57c17.326 9.106 34.867 16.195 48.64 19.648 6.835 1.715 10.368 3.187 10.757 4.49 0.323 1.068 1.708 16.62 3.080 34.56 2.757 35.981 3.52 39.050 10.68 42.89 3.661 1.966 7.245 2.186 35.546 2.186 28.303 0 31.882-0.22 35.546-2.186 7.16-3.84 7.923-6.912 10.68-42.89 1.37-17.94 2.755-33.467 3.067-34.504 0.376-1.254 4.659-2.985 12.705-5.14 15.027-4.027 28.334-9.441 45.645-18.565 7.332-3.866 14.042-7.030 14.907-7.030s11.942 8.863 24.62 19.694c12.677 10.829 24.806 21.053 26.962 22.72 5.555 4.301 12.588 4.288 18.834-0.038 7.956-5.517 42.906-41.651 44.902-46.438 3.4-8.136 2.15-10.332-22.111-38.792-12.324-14.464-22.41-27.018-22.41-27.904 0-0.891 3.162-7.616 7.027-14.95 9.126-17.306 14.541-30.618 18.565-45.645 2.158-8.046 3.891-12.329 5.14-12.708 1.039-0.312 16.563-1.69 34.509-3.064 35.978-2.757 39.048-3.523 42.888-10.683 1.964-3.661 2.184-7.24 2.184-35.546 0-28.303-0.218-31.88-2.181-35.543-3.855-7.186-6.861-7.928-43.482-10.742-22.036-1.69-33.741-3.054-34.775-4.050-0.858-0.824-2.596-5.545-3.866-10.488-3.456-13.501-9.843-29.42-18.365-45.765-4.204-8.064-7.647-15.355-7.647-16.205 0-0.852 9.815-13.010 21.811-27.021 23.485-27.433 25.626-30.991 23.188-38.492-1.91-5.862-40.786-45.453-48.12-49.006-8.812-4.262-10.458-3.372-39.757 21.555-14.495 12.326-26.998 22.413-27.786 22.413-0.794 0-8.056-3.456-16.154-7.68-15.839-8.269-34.33-15.616-48.113-19.123-5.274-1.344-8.812-2.893-9.139-4.006-0.294-0.998-1.664-16.486-3.039-34.432-2.765-35.978-3.533-39.048-10.696-42.888-3.661-1.966-7.245-2.186-35.546-2.186zM724.511 588.815c28.293 0.581 56.402 10.225 79.898 29.025 41.293 33.034 58.573 86.185 45.128 138.778-3.43 13.396-14.894 35.845-24.325 47.611-21.432 26.734-51.858 43.904-86.52 48.837-7.588 1.075-25.948 1.444-30.244 0.602-0.978-0.192-5.78-0.998-10.675-1.792-16.604-2.703-35.297-10.273-50.414-20.424-41.37-27.776-64.384-78.715-57.49-127.214 4.531-31.872 21.010-62.702 44.16-82.627 26.112-22.477 58.419-33.459 90.486-32.799zM181.484 680.046l160.737 160.735-153.636 51.917-57.472-57.467 50.373-155.187z"></path>
        </symbol>
        <symbol id="icon-feel-love" viewBox="0 0 1024 1024">
            <title>feel-love</title>
            <path
                class="path1"
                d="M768.010 0.036c-156.923 3.218-253.192 228.045-254.996 232.289-1.818-4.288-100.803-235.469-261.793-232.261-30.093 0.602-62.344 9.395-96.525 29.422-265.277 155.397-216.2 594.77 358.108 994.273v0.241l0.205-0.128 0.205 0.128v-0.241c566.582-373.642 623.396-838.876 358.121-994.273-33.92-19.866-65.933-28.698-95.813-29.435-2.522-0.064-5.025-0.067-7.516-0.015zM364.191 400.051l45.97 44.524-101.53 104.824 101.53 104.819-45.972 44.529-144.589-149.358 144.589-149.343zM659.809 400.051l144.589 149.343-144.589 149.356-45.97-44.531 101.53-104.822-101.53-104.827 45.972-44.524zM537.646 404.959l59.069 24.645-115.2 276.116-59.069-24.645 115.2-276.116z"></path>
        </symbol>
        <symbol id="icon-highly-designed" viewBox="0 0 1024 1024">
            <title>highly-designed</title>
            <path
                class="path1"
                d="M603-0.451l-490.906 490.906-111.404 342.313 343.091-115.174 488.627-488.637-229.409-229.404zM603 73.469l155.489 155.487-430.042 430.047-153.792-157.184 428.344-428.352zM146.611 553.403l131.277 131.277-125.473 42.404-46.943-46.938 41.139-126.74zM760.243 748.687c-46.822-0.422-98.322 6.042-153.528 20.92-96.835 26.097-153.088 76.109-202.030 114.509-48.947 38.4-88.105 65.915-168.589 67.584-79.296 1.644-117.079-27.725-140.5-57.772-23.424-30.042-28.201-42.514-28.201-42.514l-60.723 18.34s0.481 18.934 34.084 62.034c33.6 43.103 97.505 85.955 196.838 83.896 98.138-2.035 159.283-42.117 210.647-82.414 51.361-40.294 95.411-80.092 177.203-102.139 168.817-45.501 281.536 1.326 322.893 56.251 7.7 10.23 8.253 17.357 5.299 25.94s-11.494 19.42-28.867 28.621c-34.739 18.414-103.578 27.679-198.63-3.302-65.5-21.35-96.581-40.771-109.64-51.871-7.009-3.994-7.764-3.963-7.764-3.963l-56.095 34.739c3.19 4.198 5.811 6.011 18.278 16.717 22.861 19.438 61.857 41.677 132.961 64.852 108.306 35.302 196.206 29.358 254.254-1.403 29.030-15.38 50.9-37.619 60.211-64.666 9.306-27.044 3.976-58.102-14.515-82.662-43.612-57.917-125.891-98.381-234.286-101.517-3.080-0.087-6.18-0.154-9.3-0.179z"></path>
        </symbol>
        <symbol id="icon-integration" viewBox="0 0 1024 1024">
            <title>integration</title>
            <path
                class="path1"
                d="M739.226 1021.253c-4.634-0.026-64.876-0.138-132.339-0.251-35.625-0.061-68.787-0.681-94.861-1.697-13.036-0.507-24.276-1.111-33.403-1.818-9.126-0.712-14.61-0.896-23.055-3.098-10.148-2.644-18.906-2.145-31.8-14.705-6.451-6.28-10.532-16.102-11.604-22.589-1.075-6.495-0.742-10.56-0.609-14.387 0.481-13.409 4.288-21.076 8.678-30.482 4.396-9.405 10.061-19.162 16.758-28.948 9.124-13.338 12.928-22.003 14.060-27.131 1.134-5.128 1.070-7.877-1.825-15.872-2.637-7.296-6.036-11.407-14.753-15.928-8.719-4.521-23.357-8.236-43.917-8.671-27.896-0.589-47.135 3.185-57.713 8.166-10.573 4.982-13.76 8.909-16.704 18.801-3.615 12.16-3.359 17.556-1.313 23.713 2.048 6.159 7.634 15.068 20.762 27.86 12.595 12.278 19.73 30.387 21.1 47.475 0.691 8.673 3.845 18.207-5.207 33.736-4.531 7.767-12.211 13.396-17.638 16.008-5.435 2.611-9.293 3.533-12.966 4.506-11.699 3.092-13.763 2.007-22.623 2.45-8.863 0.44-20.127 0.799-33.147 1.093-26.035 0.594-58.988 0.927-91.648 0.998-32.666 0.064-64.973-0.136-89.779-0.622-12.403-0.243-22.879-0.556-30.925-0.973-4.019-0.205-7.373-0.425-10.563-0.763-1.597-0.169-3.098-0.34-5.202-0.742-2.107-0.397-2.885 1.93-13.629-5.599-8.289-5.806-9.416-10.010-10.655-12.588-1.242-2.575-1.69-4.122-2.074-5.409-0.758-2.58-1.006-4.096-1.267-5.632-0.522-3.072-0.832-5.888-1.152-9.257-0.65-6.74-1.221-15.327-1.784-25.667-1.121-20.675-2.15-48.077-2.959-77.184-1.613-58.209-2.422-121.889-0.914-153.088 0.494-10.266 1.595-20.109 3.18-28.818 0.788-4.352 1.664-8.376 2.944-12.557s1.050-7.823 8.694-16.604c7.462-8.576 19.218-13.99 29.325-15.048 10.112-1.057 18.662 0.891 26.452 3.656 15.575 5.53 29.338 14.943 44.526 27.653 25.843 21.637 31.974 22.853 49.779 18.166 19.61-5.161 37.325-25.080 45.389-52.961 8.064-27.878 4.884-60.321-10.296-82.637-7.849-11.533-22.426-23.258-36.301-29.601-12.321-5.637-21.965-5.396-24.225-5.307-1.843 1.265-4.646 3.116-7.045 5.391-5.35 5.076-12.022 12.083-17.93 19.016-19.128 22.451-32.86 40.74-63.37 42.414-15.258 0.837-32.568-9.075-40.325-20.296-7.757-11.218-10.445-22.385-12.347-34.624-1.339-8.64-0.937-12.826-0.957-21.786s0.128-20.255 0.41-33.213c0.548-25.925 1.613-58.424 2.9-90.509s2.796-63.7 4.257-87.91c0.732-12.104 1.441-22.31 2.145-30.116 0.358-3.899 0.691-7.142 1.119-10.189 0.215-1.528 0.43-2.954 0.87-4.941 0.435-1.989-1.902-2.478 5.658-12.987 6.871-9.549 11.282-9.894 13.857-10.97s4.001-1.408 5.197-1.7c2.399-0.589 3.73-0.75 5.094-0.929 2.721-0.358 5.184-0.556 8.154-0.75 5.939-0.394 13.542-0.701 22.764-0.955 18.452-0.512 43.169-0.778 70.118-0.709 65.091 0.169 104.090-0.402 127.603-2.419s28.884-4.224 36.659-8.74c13.85-8.049 14.29-11.018 14.546-15.506s-3.174-17.828-18.245-37.683c-9.129-12.022-15.708-21.074-20.705-32.067-5-10.99-6.945-22.707-7.649-33.357 2.86-35.116 11.195-61.279 38.641-79.15 10.189-6.636 17.152-8.243 26.765-11.090 9.618-2.852 20.339-5.381 31.020-7.181h0.005c62.428-10.506 122.12 4.311 149.417 51.661 8.653 15.002 12.851 34.785 9.134 52.874-3.717 18.086-12.833 33.498-25.088 50.163-18.988 25.815-23.544 51.584-24.115 48.184v0.005c0.502 3.016 0.75 4.493 7.278 8.868 6.533 4.378 19.584 9.626 38.766 13.069-4.762-0.858 2.524 0.161 9.242 0.461 6.715 0.307 15.905 0.62 26.632 0.922 21.458 0.607 49.126 1.172 76.741 1.6 27.615 0.43 55.214 0.717 76.531 0.776 10.657 0.026 19.763 0 26.363-0.095 6.605-0.092 14.566-1.114 8.402-0.108 12.621-2.058 25.549 5.811 30.034 11.041 4.48 5.23 5.46 8.535 6.385 11.098 1.848 5.12 2.158 7.982 2.619 11.284 0.922 6.605 1.357 13.916 1.733 23.795 0.748 19.753 0.932 48.952 0.676 89.953-0.43 69.043 2.26 112.474 7.808 135.081 5.542 22.605 6.175 21.197 16.653 24.55 6.016 1.925 5.064 2.022 10.803 0.064 5.747-1.953 17.592-8.415 36.035-21.304 18.442-12.892 34.714-22.484 54.584-25.37 19.866-2.888 39.565 3.712 55.419 13.169 31.406 18.732 44.78 55.194 49.434 100.787 4.695 46.067-3.072 89.567-28.897 120.947-12.58 15.283-33.388 26.854-54.067 30.228-11.067 1.805-25.946 3.226-39.997-1.91-14.054-5.13-23.859-12.48-41.702-24.589-20.367-13.824-33.326-19.369-37.786-20.155-4.465-0.788-2.56-1.674-10.061 4.070-8.993 6.892-10.785 7.552-14.912 33.126-4.129 25.574-5.801 71.895-6.177 149.985-0.113 23.142-0.64 44.518-1.441 60.79-0.397 8.136-0.845 14.925-1.428 20.549-0.292 2.816-0.576 5.248-1.137 8.174-0.282 1.459-0.573 2.995-1.398 5.514s0.445 6.042-9.805 14.945c-9.436 8.2-13.96 8.049-19.041 9.267-5.082 1.224-9.984 1.851-15.642 1.823zM738.501 957.381h1.037c-0.282 0 0.563-0.090 0.404-0.051-0.082 0.026-0.32-0.351-1.441 0.051zM723.884 957.355c0.722-14.881 1.254-35.328 1.357-57.472 0.384-78.73 1.505-125.834 6.989-159.846 5.489-34.012 20.122-59.098 39.132-73.659 15.624-11.971 38.459-20.060 59.976-16.271 21.519 3.789 39.593 14.605 62.577 30.208 26.785 19.302 38.528 23.462 50.586 8.532 9.907-12.032 18.125-40.023 14.669-73.876-3.82-37.463-11.361-48.092-18.611-52.416-9.306-5.555-10.424-5.263-13.512-4.813-3.087 0.445-11.904 3.832-27.177 14.508-20.114 14.062-35.233 23.698-52.050 29.42-16.814 5.724-35.917 5.082-50.849 0.307-27.612-8.832-50.744-35.592-59.226-70.17-8.481-34.58-10.079-80.179-9.638-150.697 0.241-38.554-0.008-64.852-0.602-82.739-4.096 0.010-7.194 0.056-11.914 0.044-21.745-0.056-49.518-0.348-77.345-0.778-27.827-0.435-55.675-1.004-77.555-1.62-10.939-0.307-20.367-0.63-27.699-0.96-7.332-0.333-9.518 0.059-17.651-1.4-24.653-4.424-45.568-11.174-63.040-22.879-17.469-11.704-31.258-30.395-34.744-51.548-5.906-35.86 11.814-63.959 35.681-96.41 9.564-13.010 13.253-21.632 13.985-25.185 0.73-3.553 1.024-3.021-1.912-8.115-9.428-16.358-36.564-28.467-83.482-20.575-7.77 1.306-16.538 3.372-23.475 5.427-6.932 2.056-13.573 5.668-10.053 3.374-13.107 10.342-13.768 19.144-7.706 32.563 1.29 2.842 5.069 8.863 13.427 19.873 19.704 25.953 32.768 51.43 31.145 79.931-1.62 28.498-21.412 52.685-46.221 67.105-15.534 9.027-35.080 14.735-63.293 17.152-28.211 2.424-67.758 2.824-133.23 2.652-26.414-0.067-50.698 0.205-68.198 0.686-0.819 0.026-1.111 0.056-1.9 0.077-0.323 4.598-0.614 7.859-0.952 13.466-1.421 23.506-2.918 54.861-4.198 86.623-1.272 31.762-2.33 63.99-2.867 89.3-0.248 11.656-0.353 21.332-0.358 29.21 1.523-1.551 2.885-2.611 4.48-4.485 7.444-8.742 15.309-17.024 22.605-23.941 7.291-6.912 9.574-11.551 23.936-17.754 27.169-11.725 53.786-5.069 77.842 5.932 24.054 11 46.579 28.293 62.546 51.763 28.078 41.267 31.585 92.257 18.842 136.312-12.749 44.058-43.341 84.564-90.478 96.973-35.942 9.467-73.733-3.067-107.044-30.95-3.756-3.149-6.769-5.094-9.984-7.342-0.077 1.157-0.287 2.002-0.34 3.159-1.229 25.472-0.622 90.824 0.973 148.242 0.794 28.708 1.81 55.767 2.883 75.484 0.133 2.483 0.261 3.558 0.399 5.796 4.838 0.154 8.361 0.328 14.326 0.443 24.049 0.474 56.077 0.673 88.392 0.607 32.312-0.067 64.973-0.404 90.324-0.98 9.078-0.205 15.711-0.471 22.502-0.735-14.525-14.925-25.907-30.234-31.939-48.392-6.707-20.204-5.289-41.915 0.709-62.075 7.534-25.318 26.437-46.938 50.708-58.368 24.274-11.433 52.646-14.95 86.277-14.234 27.156 0.571 51.244 5.076 71.969 15.828 20.726 10.747 37.478 28.961 45.414 50.893 5.727 15.826 7.969 34.033 4.122 51.4-3.84 17.364-12.303 32.73-23.711 49.4-3.507 5.128-5.868 9.697-8.294 14.228 1.3 0.138 0.742 0.113 2.176 0.225 7.834 0.614 18.45 1.19 30.938 1.677 24.978 0.973 57.536 1.595 92.475 1.651 59.505 0.097 101.036 0.179 116.895 0.22zM51.602 954.795c-1.582-0.435-2.168-0.192-2.55-0.172 0.428 0.044 1.782 0.115 2.552 0.174zM69.491 701.463c0.571-1.221 0.369-1.516 0.266-1.183-0.044 0.133-0.197 0.911-0.269 1.178zM73.851 278.515c0.497-1.597 0.256-2.166 0.271-2.524-0.059 0.41-0.184 1.777-0.271 2.524z"></path>
        </symbol>
        <symbol id="icon-lend-hand" viewBox="0 0 1024 1024">
            <title>lend-hand</title>
            <path
                class="path1"
                d="M258.519 65.162c-52.92-0.315-109.614 17.984-160.481 62.899-80.781 71.327-111.36 153.395-92.774 233.416 18.304 78.853 76.69 151.987 157.709 228.71l-30.438 30.541c-31.242 31.355-36.948 83.64-4.751 115.948 12.723 12.767 28.557 19.574 44.979 21.222 1.649 16.486 8.435 32.376 21.161 45.146 12.723 12.764 28.557 19.574 44.979 21.228 1.651 16.486 8.438 32.379 21.161 45.146 12.723 12.769 28.557 19.574 44.984 21.228 1.646 16.481 8.428 32.369 21.151 45.138 32.197 32.307 84.301 26.583 115.546-4.767l82.089-82.373 92.28 92.278 2.324 1.644s52.838 33.887 109.146 3.853c25.024-13.345 37.499-36.48 42.273-56.768 20.626 2.186 45.624-1.403 65.818-19.917 19.374-17.754 32.369-37.98 32.312-59.546-0.013-5.248-0.527-9.805-1.29-13.893 17.367-2.647 36.063-9.615 50.401-27.141 36.966-45.972 15.452-82.834 7.296-101.248-8.166-18.406-39.245-49.946-39.245-49.946 22.287-23.163 70.177-77.396 103.565-147.213 22.413-46.868 38.84-101.75 34.637-160.138-4.206-58.388-30.456-119.278-86.963-172.255-45.558-42.711-97.216-62.067-147.523-63.757-16.768-0.563-33.39 0.84-49.587 3.994-64.776 12.595-123.295 49.469-173.714 91.4-12.575 10.458-24.678 21.292-36.224 32.246-20.109-20.552-66.806-64.443-127.974-97.157-41.26-22.067-89.92-39.603-142.838-39.921zM258.109 132.529c38.031 0.225 76.708 13.363 111.475 31.956 54.19 28.979 96.461 69.445 112.64 86.042-54.154 59.668-87.869 111.427-87.869 111.427l-6.656 10.138 1.347 12.058s2.55 33.536 25.523 63.462c11.482 14.968 29.637 29.594 53.642 35.392 24.005 5.793 51.858 2.696 82.504-9.789 23.45-9.549 42.696-20.449 58.488-31.872 0 0 250.112 245.844 252.068 247.954 7.212 7.782 20.572 26.501 7.334 38.572-13.235 12.070-34.519 5.914-41.152-1.644-4.211-4.795-71.084-69.069-71.084-69.069-4.18-4.045-7.588-7.634-11.776-11.653-49.193-47.155-96.261-90.24-97.229-91.126l-0.63-0.594-0.364-0.338-45.85 49.352 109.338 103.091c20.109 19.443 40.586 39.352 56 55.373 9.344 9.715 17.203 18.278 22.461 24.507 7.071 7.997 17.229 20.8 4.562 32.033-12.664 11.233-26.957 3.553-39.322-4.403l-169.083-166.397-47.447 47.826 0.192 0.189 167.186 167.186s11.098 20.536-6.257 32.556c-17.352 12.019-33.357-2.322-38.264-5.315l-99.205-99.208c4.9-24.609-0.881-50.683-19.909-69.778-6.579-6.605-14.003-11.597-21.903-15.13 7.91-26.772 3.072-56.448-17.984-77.581-6.001-6.016-12.698-10.714-19.814-14.172 9.889-27.914 5.755-59.794-16.502-82.13-22.259-22.336-54.026-26.483-81.843-16.563-3.446-7.142-8.125-13.857-14.124-19.878-32.197-32.307-84.301-26.578-115.54 4.774l-42.527 42.675c-77.499-73.272-126.618-140.032-139.661-196.211-13.166-56.704 2.445-106.488 71.747-167.68 39.598-34.964 77.46-46.259 115.489-46.029zM787.128 141.299c34.509 0.402 67.891 13.133 103.173 46.208 45.806 42.941 62.776 85.345 65.843 127.949 3.072 42.598-9.165 86.408-28.211 126.234-28.713 60.037-71.534 108.664-90.911 129.009l-180.813-177.613c0.481-0.753 0.998-1.51 1.454-2.258 1.446-2.355 2.176-4.567 3.4-6.899 4.859 2.181 9.695 4.385 15.155 6.502 30.021 11.628 69.478 23.337 110.446 10.624 68.291-21.197 119.066-76.764 121.83-140.421l-67.302-2.924c-1.080 24.883-31.142 65.551-74.496 79.002-14.848 4.608-42.752-0.041-66.143-9.101-23.388-9.062-40.568-19.896-40.568-19.896l-51.72-32.794v61.243s1.050 4.664-8.013 19.438c-9.068 14.771-28.429 36.275-74.949 55.229-21.325 8.689-33.889 8.479-41.283 6.694s-11.617-5.197-16.010-10.921c-4.385-5.714-7.378-13.169-9.285-19.2 17.812-25.48 74.504-102.912 149.901-165.614 45.338-37.709 96.051-67.84 143.508-77.071 11.866-2.304 23.491-3.548 34.995-3.415zM315.73 540.582c2.391 0.197 4.26 1.070 5.325 2.138 2.834 2.847 4.301 11.418-4.762 20.506l-120.53 120.96c-9.057 9.088-17.597 7.616-20.434 4.769-2.834-2.842-4.301-11.418 4.762-20.506l120.525-120.955c5.663-5.683 11.121-7.237 15.112-6.912zM411.694 577.019c2.394 0.192 4.262 1.068 5.325 2.132 2.836 2.847 4.306 11.423-4.751 20.511l-150.359 150.886c-9.057 9.088-17.603 7.613-20.436 4.769-2.836-2.847-4.306-11.41 4.751-20.5l150.364-150.892c5.658-5.683 11.118-7.237 15.109-6.912zM448.010 673.326c2.394 0.195 4.262 1.068 5.325 2.135 2.836 2.847 4.301 11.418-4.756 20.506l-120.535 120.955c-9.057 9.088-17.595 7.619-20.429 4.774-2.842-2.847-4.306-11.423 4.749-20.511l120.535-120.955c5.663-5.683 11.123-7.235 15.114-6.907zM487.903 766.034c2.396 0.195 4.257 1.070 5.325 2.135 2.831 2.847 4.301 11.423-4.756 20.511l-94.29 94.618c-9.057 9.088-17.6 7.611-20.436 4.762-2.834-2.842-4.301-11.412 4.762-20.5l94.285-94.618c5.658-5.678 11.121-7.235 15.109-6.907z"></path>
        </symbol>
        <symbol id="icon-powerful" viewBox="0 0 1024 1024">
            <title>powerful</title>
            <path class="path1" d="M404.882 64.86c0 9.83-167.066 577.843-167.066 577.843l257.887-56.95-137.994 438.246 428.472-666.291-290.888 49.139 198.51-406.848z"></path>
        </symbol>
        <symbol id="icon-smiley" viewBox="0 0 1024 1024">
            <title>smiley</title>
            <path
                class="path1"
                d="M512 0c-282.394 0-512 229.606-512 512s229.606 512 512 512 512-229.606 512-512-229.606-512-512-512zM512 64c247.803 0 448 200.197 448 448s-200.197 448-448 448-448-200.197-448-448 200.197-448 448-448zM307.2 299.886c0 0 0 0 0 0-45.444 0-82.285 36.839-82.286 82.283 0 45.445 36.841 82.286 82.286 82.286s82.286-36.841 82.286-82.286c-0.001-45.444-36.842-82.284-82.286-82.284 0 0 0 0 0 0zM716.8 299.886c0 0 0 0 0 0-45.444 0-82.285 36.839-82.286 82.283 0 45.445 36.841 82.286 82.286 82.286 0 0 0 0 0 0 45.445 0 82.286-36.841 82.286-82.286s-36.842-82.284-82.286-82.284c0 0 0 0 0 0zM189.089 574.344c7.276 189.458 142.546 321.976 324.547 320.051 181.996-1.925 323.666-158.152 324.897-320.051h-649.444zM256.435 638.344h70.879v127.002c-37.299-34.066-62.73-78.208-70.879-127.002zM391.314 638.344h89.6v194.911c-32.192-3.571-62.387-12.288-89.6-25.17v-169.738zM544.914 638.344h89.6v170.565c-27.251 12.659-57.439 21.158-89.6 24.525v-195.087zM698.514 638.344h72.678c-8.279 49.567-34.406 94.316-72.678 128.596v-128.594z"></path>
        </symbol>
        <symbol id="icon-social-management" viewBox="0 0 1024 1024">
            <title>social-management</title>
            <path
                class="path1"
                d="M143.168 0c-77.806 0-141.568 63.764-141.568 141.568 0 77.811 63.762 141.568 141.568 141.568 13.245 0 26.066-1.889 38.246-5.338l34.422 57.789c-76.48 56.438-126.223 147.164-126.223 249.216 0 170.598 138.982 309.581 309.581 309.581 88.499 0 168.479-37.412 224.973-97.229l52.378 39.532c-4.954 14.372-7.685 29.747-7.685 45.74 0 77.804 63.759 141.568 141.568 141.568 77.806 0 141.568-63.764 141.568-141.568 0-77.811-63.762-141.568-141.568-141.568-38.802 0-74.104 15.857-99.753 41.403l-47.56-35.896c28.941-47.071 45.658-102.41 45.658-161.562 0-49.779-11.853-96.855-32.845-138.583l117.683-86.226c24.095 18.964 54.395 30.349 87.224 30.349 77.806 0 141.568-63.762 141.568-141.568 0-77.809-63.762-141.573-141.568-141.573-77.809 0-141.573 63.764-141.573 141.568 0 21.949 5.074 42.778 14.106 61.371l-112.026 82.081c-56.788-71.235-144.256-117.002-242.145-117.002-45.701 0-89.124 9.979-128.223 27.863l-33.492-56.223c28.948-25.979 47.258-63.611 47.258-105.293 0-77.804-63.762-141.568-141.568-141.568zM143.168 64c43.22 0 77.568 34.355 77.568 77.568 0 43.223-34.348 77.568-77.568 77.568-43.218 0-77.568-34.345-77.568-77.568 0-43.213 34.35-77.568 77.568-77.568zM880.832 171.205c43.218 0 77.568 34.355 77.568 77.573s-34.35 77.568-77.568 77.568c-43.22 0-77.573-34.35-77.573-77.568 0-43.22 34.355-77.576 77.573-77.576zM399.194 339.218c136.013 0 245.581 109.576 245.581 245.588s-109.568 245.581-245.581 245.581c-136.013 0-245.586-109.568-245.586-245.581s109.573-245.586 245.586-245.586zM397.069 403.858c-65.134-1.024-116.89 74.757-90.726 134.82 7.414 19.259 21.156 35.891 38.277 47.327-58.947 25.882-93.96 90.793-93.023 153.784-0.154 12.301-1.311 24.968 10.496 24.602 87.867-1.787 194.995 0.384 282.872-0.195 11.494-69.924-23.578-148.57-89.882-177.981 46.472-30.751 59.709-103.352 21.363-145.684-19.174-23.281-49.126-37.499-79.378-36.675zM398.743 464.41c1.357-0.018 2.732 0.044 4.116 0.189 33.349 1.528 49.093 52.659 19.205 70.574-23.578 16.755-63.872-0.614-61.133-31.693 0.307-20.495 17.418-38.789 37.811-39.071zM401.311 635.384c38.211 0.607 70.382 32.735 80 67.917-54.477-0.056-108.954 0.154-163.423-0.154 10.040-35.244 41.298-67.379 79.708-67.722 1.244-0.051 2.483-0.061 3.712-0.041zM810.419 804.864c43.223 0 77.576 34.345 77.576 77.568 0 43.213-34.355 77.568-77.573 77.568-43.213 0-77.568-34.355-77.568-77.568 0-43.223 34.355-77.568 77.568-77.568z"></path>
        </symbol>
        <symbol id="icon-speak-up" viewBox="0 0 1024 1024">
            <title>speak-up</title>
            <path
                class="path1"
                d="M0 0v768h175.544v256h66.696l165.471-256h616.289v-768h-1024zM64 64h896v640l-580.854 0.914-139.602 218.854v-155.768h0.031l0.041-64h-175.616v-640zM654.405 103.439c-87.194-2.156-140.864 123.187-141.855 125.517-0.986-2.319-54.477-127.24-141.471-125.507-16.261 0.325-33.69 5.076-52.16 15.898-143.35 83.968-116.833 321.408 193.516 537.285v0.128l0.115-0.069 0.102 0.077v-0.133c306.168-201.907 336.87-453.315 193.523-537.293-18.33-10.732-35.622-15.503-51.771-15.903z"></path>
        </symbol>
        <symbol id="icon-gallery" viewBox="0 0 1024 1024">
            <title>gallery</title>
            <path d="M107.855 133.83h359.073v333.794H107.855zM533.072 133.83h359.074v333.794H533.072zM107.855 532.376h359.073V866.17H107.855zM533.072 532.376h359.074V866.17H533.072z"/>
        </symbol>
        <symbol id="icon-list" viewBox="0 0 1024 1024">
            <title>list</title>
            <path transform="matrix(31.97294 0 0 31.97294 5313.926 639.882)" d="M-162.75-2.5h3.75v-3.75h-3.75zm0 7.5h3.75V1.25h-3.75zm0-15h3.75v-3.75h-3.75zm7.5 7.5h16.875v-3.75h-16.875zm0 7.5h16.875V1.25h-16.875zm0-18.75V-10h16.875v-3.75z"/>
        </symbol>
        <symbol id="icon-recruit" viewBox="0 0 1024 1024">
            <title>Looking for people</title>
            <path
                d="M510.5 3l-159 141.7-207 14.2-19.3 203L0 513.4l125.2 151.2 19.3 208 207 19 159 132.3 159-132.4 207-19 14.5-203L1021 518 896 362.2 876.6 159l-207-19-159-137zm0 250.5c72.3 0 135 56.7 135 132.3 0 75.7-62.7 132.4-135 132.4-72.2 0-134.8-56.7-134.8-127.6 0-71 62.6-127.7 134.8-127.7zm0 331c96.4 0 269.8 47 269.8 127.5v66.2H240.8V712c0-85 178.2-132.4 269.7-132.4z"/>
        </symbol>
        <symbol id="icon-badge" viewBox="0 0 1024 1024">
            <title>Owner Badge</title>
            <path
                fill="#9dce0a"
                d="M512.053 24.761l-130.433 173.609-213.936-30.392 30.427 214.125-173.349 130.201 173.349 130.2-30.427 214.123 214.747-30.506 130.064 173.118 129.997-173.027 214.355 30.451-30.588-215.258 172.981-129.922-172.497-129.561 30.458-214.345-214.912 30.53-130.235-173.346z"></path>
        </symbol>
        <symbol id="icon-exclamation" viewBox="0 0 1024 1024">
            <title>Exclamation</title>
            <path
                d="M512 0c-282.394 0-512 229.606-512 512s229.606 512 512 512 512-229.606 512-512-229.606-512-512-512zM512 64c247.803 0 448 200.197 448 448s-200.197 448-448 448-448-200.197-448-448 200.197-448 448-448zM275.256 230.001l-45.256 45.251 236.744 236.749-236.744 236.744 45.256 45.256 236.744-236.744 236.744 236.744 45.256-45.256-236.744-236.744 236.744-236.749-45.253-45.251-236.749 236.744z"></path>
        </symbol>
        <symbol id="icon-blocked-project" viewBox="0 0 1024 1024">
            <title>Blocked Project</title>
            <path fill="#ff8282" d="M1017.075 512c0 278.946-226.13 505.076-505.076 505.076s-505.076-226.13-505.076-505.076c0-278.946 226.13-505.076 505.076-505.076s505.076 226.13 505.076 505.076z"></path>
            <path
                fill="#fff"
                d="M511.998 107.939c-222.856 0-404.061 181.204-404.061 404.061s181.205 404.061 404.061 404.061c222.856 0 404.061-181.203 404.061-404.061s-181.205-404.061-404.061-404.061zM511.998 158.447c88.671 0 169.621 32.484 231.616 86.222l-498.947 498.948c-53.74-61.998-86.223-142.945-86.223-231.617 0-195.561 157.992-353.553 353.553-353.553zM779.328 280.383c53.74 61.998 86.223 142.945 86.223 231.617 0 195.561-157.992 353.553-353.553 353.553-88.671 0-169.617-32.484-231.616-86.222l498.947-498.948z"></path>
        </symbol>
        <symbol id="icon-add-user" viewBox="0 0 470 350">
            <title>Add user</title>
            <path
                d="M298.5 174.7c47.5 0 86-37.7 86-85.2 0-46.6-39.3-85-87-85-46.5 0-85 38.4-85 85 0 47.5 38.5 85.2 85 85.2zm-191-42V68H63v64.6H0v42h62.8v64.6h44.8v-64.5h62.7v-42h-62.7zm191 85c-56.4 0-170.3 28.7-170.3 85.2v43H469v-43c0-56.8-113-85.5-170.5-85.5z"/>
        </symbol>
        <symbol id="icon-view-more" viewBox="0 0 66.3 16">
            <title>View more</title>
            <path d="M16 8a8 8 0 0 1-8 8 8 8 0 0 1-8-8 8 8 0 0 1 8-8 8 8 0 0 1 8 8zM41.2 8a8 8 0 0 1-8 8 8 8 0 0 1-8-8 8 8 0 0 1 8-8 8 8 0 0 1 8 8zM66.3 8a8 8 0 0 1-8 8 8 8 0 0 1-8-8 8 8 0 0 1 8-8 8 8 0 0 1 8 8z"/>
        </symbol>
        <symbol id="icon-merge" viewBox="0 0 400 400">
            <title>Merge</title>
            <path d="M201.2 5.8l-100 100.7h81.4v126L45 371l23.3 22.7L216.8 243V106.4h85zm51 269.8l-24 24.2 102.6 94.4 24-24.2z"/>
        </symbol>
        <symbol id="icon-fill" viewBox="0 0 400 400">
            <title>Fill</title>
            <path d="M106.3 1.4l-9.8 9.8L171 85.7 20.8 236l160 160 160-160-160-160-74.5-74.6zm74.5 94.2L321 236l-1 .8H41.6l-1-1L180.8 95.7zM341.2 291s-38 41.2-38 66.5c0 21 17 38 38 38s38-17 38-38c0-25.3-38-66.5-38-66.5z"/>
        </symbol>
        <symbol id="icon-epics" viewBox="0 0 23 25">
            <title>Epics</title>
            <path d="M15.94,5.47 L15.94,8.59 L21.17,8.59 L21.17,25 L0,25 L0,17.97 L6.8,17.97 L6.8,13.28 L13.6,13.28 L13.6,8.59 L15.16,8.59 L15.16,0 L23,0 L23,5.47 L15.94,5.47 Z M15.94,4.69 L22.22,4.69 L22.22,0.79 L15.94,0.79 L15.94,4.69 Z M7.58,15.36 L13.59,15.36 L13.59,14.06 L7.58,14.06 L7.58,15.36 Z M0.78,20.06 L6.8,20.06 L6.8,18.75 L0.78,18.75 L0.78,20.06 Z M20.38,24.22 L20.38,11.46 L14.38,11.46 L14.38,16.15 L7.58,16.15 L7.58,20.87 L6.8,20.87 L6.8,20.83 L0.78,20.83 L0.78,24.22 L20.38,24.22 Z M14.38,9.37 L14.38,10.67 L20.38,10.67 L20.38,9.37 L14.38,9.37 Z" id="uh3fa"></path>
        </symbol>
        <symbol id="icon-broken-link" viewBox="0 0 400 400">
            <title>Broken Link</title>
            <path
                d="M88.2 2.7C56.8 1 25.8 17.4 11 47c-19.8 39.7-3.4 88 36.5 107.6l83.2 41c-9.8 29.4-2 63.2 23 85L263 377.2c33.4 29.3 84.5 26.4 114-6.6 29.6-33 26.6-83.8-6.6-113.2l-51.8-45.6-9.4-8.3-16.6 18.6 9.4 8.4 51.7 45.6c23.3 20.5 25.3 55 4.7 78-20.7 23-55.5 25-78.7 4.6L170.2 262c-16.4-14.4-22-35.8-16.7-55.3l25 12.4c40 19.7 88.5 3.5 108.3-36 9.7-19.5 10.7-41 4.5-60.2l-3.8-11.8-23.8 7.6 3.8 11.8c4.3 13.2 3.6 28-3 41.5-14 27.5-47 38.6-74.8 24.8l-24.6-12c.4-.3.4-.5.6-.7 11.5-12.8 27.4-19 43.3-18.5l12.4.3.7-25-12.4-.2c-23-.6-46.2 8.5-62.7 27-1.8 1.8-3 4-4.5 6l-83.8-41.3c-28-13.7-39-46.5-25.3-74 13.8-27.7 46.8-38.8 74.7-25l73.3 36 11.2 5.5 11-22.3-11-5.5L119 11c-10-5-20.5-7.6-31-8.3zm187 19a12.5 12.4 0 0 0-12 8.7L257.3 47a12.5 12.4 0 1 0 23.7 8l5.8-16.5a12.5 12.4 0 0 0-11.6-16.7zm55.5 31a12.5 12.4 0 0 0-7.7 3L306.8 69a12.5 12.4 0 1 0 16 19.2L339 75a12.5 12.4 0 0 0-8.3-22.2zm22 69.8a12.5 12.4 0 0 0-3.3.6l-14 4.3a12.5 12.4 0 1 0 7.2 23.8l14-4a12.5 12.4 0 0 0-4-24.5z"/>
        </symbol>
        <symbol id="icon-mail" viewBox="0 0 100 73">
            <path d="M0 13.5v73h100v-73H0zm6.3 4.3h87L49.6 61.3 6.3 17.8zm89.3 3v59.5L66 50.5l29.6-29.8zm-91.2.5l29 29-29 29v-58zM36 53l13.7 13.6L63.2 53l29 29.2H6.8L36 53z"/>
        </symbol>
        <symbol id="icon-duplicate" viewBox="0 0 400 400">
            <title>Duplicate</title>
            <path
                d="M106-.3a12.5 12.5 0 0 0-12.4 12.5v91H12.3A12.5 12.5 0 0 0-.2 115.5v272.2a12.5 12.5 0 0 0 12.5 12.5H294a12.5 12.5 0 0 0 12.4-12.5v-91h81.3a12.5 12.5 0 0 0 12.5-12.4v-272A12.5 12.5 0 0 0 387.7-.4H106zm12.6 25h256.6V272h-68.8V115.5A12.5 12.5 0 0 0 294 103H118.5V24.8zM24.8 128h68.8v156.4A12.5 12.5 0 0 0 106 297h175.4v78.3H24.8V128zm93.8 0h162.8v144H118.6V128z"/>
        </symbol>
        <symbol id="icon-bell" viewBox="0 0 28 28">
            <title>Bell</title>
            <path d="M28,20.44 C28,21.06 27.5,21.57 26.87,21.57 L1.13,21.57 C0.505918233,21.57 0,21.0640818 0,20.44 C0,19.8159182 0.505918233,19.31 1.13,19.31 C2.63,19.31 3.86,18.08 3.86,16.58 L3.86,10.14 C4.10099969,4.71482919 8.56947892,0.440444225 14,0.440444225 C19.4305211,0.440444225 23.8990003,4.71482919 24.14,10.14 L24.14,16.58 C24.14,18.08 25.36,19.31 26.87,19.31 C27.49,19.31 28,19.81 28,20.44 Z M22.7,19.31 C22.1659716,18.4995853 21.8809119,17.550545 21.88,16.58 L21.88,10.14 C21.6684484,5.94215232 18.2031749,2.64711459 14,2.64711459 C9.7968251,2.64711459 6.3315516,5.94215232 6.12,10.14 L6.12,16.58 C6.12,17.58 5.82,18.52 5.31,19.31 L22.7,19.31 Z M17.2,26.15 C16.5379455,27.290602 15.3188211,27.9925824 14,27.9925824 C12.6811789,27.9925824 11.4620545,27.290602 10.8,26.15 C10.5422739,25.6175907 10.7387451,24.9765192 11.2505323,24.6799451 C11.7623195,24.383371 12.4162175,24.5316644 12.75,25.02 C13.0104732,25.4630739 13.4860342,25.7351531 14,25.7351531 C14.5139658,25.7351531 14.9895268,25.4630739 15.25,25.02 C15.4346515,24.6385479 15.8172156,24.3924828 16.2408963,24.3826559 C16.664577,24.3728291 17.0581381,24.6008927 17.2602763,24.9733736 C17.4624146,25.3458545 17.4391432,25.8001251 17.2,26.15 Z" id="42aca"></path>
        </symbol>
        <symbol id="icon-contacts" viewBox="0 0 20 15">
            <title>Contacts</title>
            <path d="M12.81,6.93 C13.7158487,6.94386696 14.5882463,6.58806016 15.2260165,5.94462928 C15.8637867,5.3011984 16.2118708,4.42569078 16.19,3.52 C16.2146408,2.61259768 15.8677828,1.73446322 15.2297027,1.08883184 C14.5916226,0.443200459 13.7176294,0.086035814 12.81,0.1 C12.48,0.1 12.14,0.22 11.81,0.22 C12.4760385,1.19037683 12.8253603,2.34313869 12.81,3.52 C12.8253603,4.69686131 12.4760385,5.84962317 11.81,6.82 C12.14,6.82 12.48,6.93 12.81,6.93 Z M7.19,6.93 C8.09412574,6.94112381 8.96390464,6.5841077 9.59948336,5.94098502 C10.2350621,5.29786234 10.5817908,4.42393155 10.56,3.52 C10.5845553,2.61435714 10.2390508,1.73780328 9.60316384,1.09248183 C8.96727692,0.447160389 8.09590626,0.0887845795 7.19,0.1 C6.28237059,0.086035814 5.40837744,0.443200459 4.77029731,1.08883184 C4.13221717,1.73446322 3.78535916,2.61259768 3.81,3.52 C3.78812919,4.42569078 4.13621328,5.3011984 4.77398348,5.94462928 C5.41175368,6.58806016 6.28415132,6.94386696 7.19,6.93 Z M14.62,9.43 C15.52,10.23 16.19,11.37 16.19,12.62 L16.19,14.89 L19.57,14.89 L19.57,12.62 C19.57,10.92 16.87,9.78 14.62,9.43 Z M7.19,9.21 C4.93,9.21 0.43,10.34 0.43,12.61 L0.43,14.89 L13.94,14.89 L13.94,12.62 C13.94,10.34 9.44,9.21 7.19,9.21 Z" id="bh29a"></path>
        </symbol>
    </defs>
</svg>
