<svg xmlns="http://www.w3.org/2000/svg" xmlns:xlink="http://www.w3.org/1999/xlink" width="10" height="16" viewBox="0 0 10 16"><defs><path id="bmaza" d="M1249.65 453.78l3.57 3.58 3.62-3.63a.68.68 0 0 1 1.16.5c0 .18-.08.35-.2.47l-4.09 4.1c-.12.12-.3.2-.49.2a.68.68 0 0 1-.5-.2l-4.08-4.1a.68.68 0 0 1 .49-1.16c.2 0 .4.1.52.24z"/><path id="bmazb" d="M1249.22 448.08l3.63-3.48 3.67 3.53c.12.11.3.18.48.18.38 0 .7-.3.7-.66a.65.65 0 0 0-.2-.46l-4.15-4a.7.7 0 0 0-.5-.2.7.7 0 0 0-.5.2l-4.15 4a.65.65 0 0 0-.2.46c0 .37.31.66.7.66a.7.7 0 0 0 .52-.23z"/></defs><g><g transform="translate(-1248 -443)"><g><use fill="#868a97" xlink:href="#bmaza"/></g><g><use fill="#868a97" xlink:href="#bmazb"/></g></g></g></svg>